<svg width="45" height="45" viewBox="0 0 45 45" fill="none" xmlns="http://www.w3.org/2000/svg">
<rect width="45" height="45" rx="4" fill="#071624"/>
<path fill-rule="evenodd" clip-rule="evenodd" d="M27.6666 25.4563L30.7824 28.4956C31.073 28.7822 31.073 29.2456 30.7793 29.5321L29.8948 30.3948C29.6042 30.6814 29.1292 30.6814 28.8354 30.3948L25.7195 27.3555C25.5789 27.2183 25.5008 27.0324 25.5008 26.8373V26.3404C24.3976 27.1817 23.01 27.6817 21.5005 27.6817C17.9096 27.6817 15 24.8436 15 21.3408C15 17.8381 17.9096 15 21.5005 15C25.0914 15 28.001 17.8381 28.001 21.3408C28.001 22.8133 27.4884 24.1668 26.6259 25.2429H27.1353C27.3353 25.2429 27.5259 25.3191 27.6666 25.4563ZM17.4854 21.2894C17.4854 23.4269 19.2934 25.1539 21.5243 25.1539C23.7583 25.1539 25.5631 23.4239 25.5631 21.2894C25.5631 19.1518 23.7551 17.4248 21.5243 17.4248C19.2903 17.4248 17.4854 19.1548 17.4854 21.2894Z" fill="white"/>
</svg>
