<?xml version="1.0" encoding="UTF-8"?>
<svg width="38px" height="38px" viewBox="0 0 38 38" version="1.1" xmlns="http://www.w3.org/2000/svg" xmlns:xlink="http://www.w3.org/1999/xlink">
    <title>settings</title>
    <g id="Page-1" stroke="none" stroke-width="1" fill="none" fill-rule="evenodd">
        <g id="settings">
            <rect id="Rectangle-Copy" fill="#FFFFFF" opacity="0.1" x="0" y="0" width="38" height="38" rx="8"></rect>
            <path d="M19.3071754,11.5 C19.1196754,11.5 18.9329254,11.50675 18.7484254,11.52025 C18.5256754,11.53675 18.2894254,11.731 18.2406754,12.06775 L18.1694254,12.5575 C18.0471754,13.4005 17.4689254,14.02675 16.8261754,14.37175 C16.7294254,14.4235 16.6349254,14.479 16.5419254,14.536 C15.9209254,14.92225 15.0891754,15.10975 14.2979254,14.794 L13.8374254,14.61025 C13.5209254,14.48425 13.2351754,14.59075 13.1084254,14.776 C12.8991754,15.08275 12.7116754,15.406 12.5489254,15.74425 C12.4514254,15.94525 12.5016754,16.24525 12.7686754,16.456 L13.1609254,16.76575 C13.8284254,17.29225 14.0826754,18.1045 14.0594254,18.83425 L14.0571754,19 L14.0594254,19.16575 C14.0826754,19.8955 13.8284254,20.70775 13.1609254,21.23425 L12.7686754,21.544 C12.5016754,21.75475 12.4514254,22.05475 12.5489254,22.25575 C12.7116754,22.594 12.8991754,22.91725 13.1084254,23.224 C13.2351754,23.40925 13.5209254,23.51575 13.8374254,23.38975 L14.2979254,23.206 C15.0891754,22.89025 15.9209254,23.0785 16.5419254,23.464 C16.6349254,23.521 16.7294254,23.5765 16.8261754,23.62825 C17.4689254,23.97325 18.0471754,24.5995 18.1694254,25.4425 L18.2406754,25.93225 C18.2894254,26.269 18.5256754,26.46325 18.7484254,26.47975 C18.9329254,26.49325 19.1196754,26.5 19.3071754,26.5 C19.4946754,26.5 19.6814254,26.49325 19.8659254,26.47975 C20.0894254,26.46325 20.3249254,26.269 20.3736754,25.93225 L20.4449254,25.4425 C20.5671754,24.5995 21.1454254,23.97325 21.7881754,23.62825 C21.8849254,23.5765 21.9794254,23.521 22.0731754,23.464 C22.6934254,23.0785 23.5251754,22.89025 24.3164254,23.206 L24.7769254,23.38975 C25.0934254,23.51575 25.3791754,23.40925 25.5059254,23.224 C25.7151754,22.91725 25.9026754,22.59325 26.0654254,22.25575 C26.1629254,22.05475 26.1126754,21.75475 25.8456754,21.544 L25.4534254,21.23425 C24.7859254,20.70775 24.5316754,19.8955 24.5549254,19.16575 L24.5571754,19 L24.5549254,18.83425 C24.5316754,18.1045 24.7859254,17.29225 25.4534254,16.76575 L25.8456754,16.456 C26.1126754,16.24525 26.1629254,15.94525 26.0654254,15.74425 C25.9026754,15.40675 25.7151754,15.08275 25.5059254,14.776 C25.3791754,14.59075 25.0934254,14.48425 24.7769254,14.61025 L24.3164254,14.794 C23.5251754,15.10975 22.6934254,14.92225 22.0731754,14.536 C21.9794254,14.479 21.8849254,14.4235 21.7881754,14.37175 C21.1454254,14.02675 20.5671754,13.4005 20.4449254,12.5575 L20.3736754,12.06775 C20.3249254,11.731 20.0894254,11.53675 19.8659254,11.52025 C19.6814254,11.50675 19.4946754,11.5 19.3071754,11.5 Z M18.6389254,10.02475 C18.8594254,10.00825 19.0821754,10 19.3071754,10 C19.5321754,10 19.7549254,10.00825 19.9754254,10.02475 C21.0141754,10.1005 21.7251754,10.9375 21.8579254,11.8525 L21.9291754,12.34225 C21.9666754,12.60025 22.1601754,12.86875 22.4976754,13.05025 C22.6221754,13.117 22.7444254,13.1875 22.8636754,13.2625 C23.1891754,13.46425 23.5184254,13.49725 23.7606754,13.4005 L24.2219254,13.21675 C25.0791754,12.87475 26.1576754,13.072 26.7441754,13.93 C26.9954254,14.29825 27.2211754,14.68675 27.4169254,15.09175 C27.8691754,16.02925 27.4994254,17.06275 26.7741754,17.63425 L26.3826754,17.94325 C26.1779254,18.1045 26.0421754,18.406 26.0541754,18.78775 C26.0564254,18.85825 26.0571754,18.92875 26.0571754,19 C26.0571754,19.07125 26.0564254,19.14175 26.0541754,19.21225 C26.0421754,19.594 26.1779254,19.8955 26.3826754,20.05675 L26.7741754,20.36575 C27.4994254,20.93725 27.8691754,21.97075 27.4169254,22.90825 C27.2211754,23.31325 26.9954254,23.70175 26.7441754,24.07 C26.1576754,24.928 25.0791754,25.12525 24.2219254,24.78325 L23.7606754,24.5995 C23.5184254,24.50275 23.1891754,24.53575 22.8636754,24.7375 C22.7444254,24.8125 22.6221754,24.883 22.4976754,24.94975 C22.1601754,25.13125 21.9666754,25.39975 21.9291754,25.65775 L21.8579254,26.1475 C21.7251754,27.0625 21.0141754,27.8995 19.9754254,27.97525 C19.7549254,27.99175 19.5321754,28 19.3071754,28 C19.0821754,28 18.8594254,27.99175 18.6389254,27.97525 C17.6009254,27.8995 16.8891754,27.0625 16.7564254,26.1475 L16.6851754,25.65775 C16.6476754,25.39975 16.4541754,25.13125 16.1166754,24.94975 C15.9921754,24.883 15.8699254,24.8125 15.7506754,24.7375 C15.4251754,24.53575 15.0959254,24.50275 14.8536754,24.5995 L14.3924254,24.78325 C13.5351754,25.12525 12.4566754,24.928 11.8701754,24.07 C11.6189254,23.70175 11.3931754,23.31325 11.1981754,22.90825 C10.7451754,21.97075 11.1149254,20.93725 11.8401754,20.36575 L12.2316754,20.05675 C12.4364254,19.8955 12.5721754,19.594 12.5601754,19.21225 C12.5579254,19.14175 12.5571754,19.07125 12.5571754,19 C12.5571754,18.92875 12.5579254,18.85825 12.5601754,18.78775 C12.5721754,18.406 12.4364254,18.1045 12.2316754,17.94325 L11.8401754,17.63425 C11.1149254,17.06275 10.7451754,16.02925 11.1981754,15.09175 C11.3931754,14.68675 11.6189254,14.29825 11.8701754,13.93 C12.4566754,13.072 13.5351754,12.87475 14.3924254,13.21675 L14.8536754,13.4005 C15.0959254,13.49725 15.4251754,13.46425 15.7506754,13.2625 C15.8699254,13.1875 15.9921754,13.117 16.1166754,13.05025 C16.4541754,12.86875 16.6476754,12.60025 16.6851754,12.34225 L16.7564254,11.8525 C16.8891754,10.9375 17.6009254,10.1005 18.6389254,10.02475 Z M19.3071754,16.75 C18.0644254,16.75 17.0571754,17.75725 17.0571754,19 C17.0571754,20.24275 18.0644254,21.25 19.3071754,21.25 C20.5499254,21.25 21.5571754,20.24275 21.5571754,19 C21.5571754,17.75725 20.5499254,16.75 19.3071754,16.75 Z M15.5571754,19 C15.5571754,16.92925 17.2356754,15.25 19.3071754,15.25 C21.3779254,15.25 23.0571754,16.92925 23.0571754,19 C23.0571754,21.07075 21.3779254,22.75 19.3071754,22.75 C17.2356754,22.75 15.5571754,21.07075 15.5571754,19 L15.5571754,19 Z" id="Fill-1157" fill="#AE9463"></path>
        </g>
    </g>
</svg>