<svg width="21" height="20" viewBox="0 0 21 20" fill="none" xmlns="http://www.w3.org/2000/svg">
<path fill-rule="evenodd" clip-rule="evenodd" d="M10.4736 1C10.142 1 9.81043 1.17147 9.6399 1.51537L7.21653 6.39526L1.79759 7.17779C1.03401 7.28768 0.729902 8.21989 1.28222 8.75516L5.20243 12.5532L4.27685 17.9172C4.17453 18.5149 4.65201 19 5.1939 19C5.33696 19 5.48474 18.9659 5.62685 18.892L10.4736 16.3597L15.3203 18.892C15.4624 18.9659 15.6102 19 15.7533 19C16.2952 19 16.7726 18.5149 16.6703 17.9172L15.7447 12.5532L19.665 8.75516C20.2173 8.21989 19.9132 7.28768 19.1496 7.17779L13.7306 6.39526L11.3073 1.51537C11.1367 1.17147 10.8052 1 10.4736 1ZM10.4679 1.95495L13.1035 7.26211L19.0065 8.074L14.7254 12.2216L15.759 18.0517L10.4736 15.2901L5.21096 18.0782L6.2218 12.2216L1.93306 8.11568L7.84369 7.26211L10.4679 1.95495Z" fill="white"/>
<path d="M9.6399 1.51537L9.86381 1.62656L9.86388 1.62643L9.6399 1.51537ZM7.21653 6.39526L7.25226 6.6427L7.3821 6.62395L7.44044 6.50646L7.21653 6.39526ZM1.79759 7.17779L1.8332 7.42524L1.83332 7.42522L1.79759 7.17779ZM1.28222 8.75516L1.10823 8.93468L1.10826 8.93471L1.28222 8.75516ZM5.20243 12.5532L5.44879 12.5957L5.47125 12.4655L5.37638 12.3736L5.20243 12.5532ZM4.27685 17.9172L4.03049 17.8746L4.03043 17.875L4.27685 17.9172ZM5.62685 18.892L5.74219 19.1138L5.74262 19.1136L5.62685 18.892ZM10.4736 16.3597L10.5894 16.1381L10.4736 16.0776L10.3578 16.1381L10.4736 16.3597ZM15.3203 18.892L15.2046 19.1136L15.205 19.1138L15.3203 18.892ZM16.6703 17.9172L16.9167 17.875L16.9167 17.8746L16.6703 17.9172ZM15.7447 12.5532L15.5708 12.3736L15.4759 12.4655L15.4984 12.5957L15.7447 12.5532ZM19.665 8.75516L19.8389 8.93471L19.8389 8.93468L19.665 8.75516ZM19.1496 7.17779L19.1139 7.42522L19.114 7.42524L19.1496 7.17779ZM13.7306 6.39526L13.5067 6.50646L13.5651 6.62395L13.6949 6.6427L13.7306 6.39526ZM11.3073 1.51537L11.0833 1.62643L11.0834 1.62656L11.3073 1.51537ZM13.1035 7.26211L12.8796 7.3733L12.9384 7.49175L13.0694 7.50977L13.1035 7.26211ZM19.0065 8.074L19.1805 8.25356L19.5493 7.89629L19.0406 7.82633L19.0065 8.074ZM14.7254 12.2216L14.5514 12.042L14.456 12.1344L14.4792 12.2652L14.7254 12.2216ZM15.759 18.0517L15.6432 18.2733L16.0939 18.5088L16.0051 18.008L15.759 18.0517ZM10.4736 15.2901L10.5894 15.0685L10.4728 15.0076L10.3565 15.0692L10.4736 15.2901ZM5.21096 18.0782L4.9646 18.0357L4.87798 18.5375L5.32799 18.2991L5.21096 18.0782ZM6.2218 12.2216L6.46815 12.2641L6.49078 12.133L6.39468 12.041L6.2218 12.2216ZM1.93306 8.11568L1.89733 7.86825L1.38967 7.94156L1.76017 8.29627L1.93306 8.11568ZM7.84369 7.26211L7.87942 7.50954L8.00953 7.49075L8.06779 7.37292L7.84369 7.26211ZM10.4736 0.75C10.0561 0.75 9.63252 0.967505 9.41593 1.40431L9.86388 1.62643C9.98833 1.37544 10.228 1.25 10.4736 1.25V0.75ZM9.41599 1.40417L6.99262 6.28407L7.44044 6.50646L9.86381 1.62656L9.41599 1.40417ZM7.1808 6.14783L1.76186 6.93036L1.83332 7.42522L7.25226 6.6427L7.1808 6.14783ZM1.76197 6.93034C0.794484 7.06958 0.405556 8.2537 1.10823 8.93468L1.4562 8.57563C1.05425 8.18609 1.27353 7.50579 1.8332 7.42524L1.76197 6.93034ZM1.10826 8.93471L5.02847 12.7327L5.37638 12.3736L1.45617 8.5756L1.10826 8.93471ZM4.95607 12.5106L4.03049 17.8746L4.52321 17.9597L5.44879 12.5957L4.95607 12.5106ZM4.03043 17.875C3.89971 18.6387 4.51083 19.25 5.1939 19.25V18.75C4.79319 18.75 4.44936 18.3912 4.52327 17.9593L4.03043 17.875ZM5.1939 19.25C5.37718 19.25 5.56453 19.2062 5.74219 19.1138L5.51151 18.6702C5.40496 18.7256 5.29673 18.75 5.1939 18.75V19.25ZM5.74262 19.1136L10.5894 16.5813L10.3578 16.1381L5.51108 18.6704L5.74262 19.1136ZM10.3578 16.5813L15.2046 19.1136L15.4361 18.6704L10.5894 16.1381L10.3578 16.5813ZM15.205 19.1138C15.3826 19.2062 15.57 19.25 15.7533 19.25V18.75C15.6504 18.75 15.5422 18.7256 15.4357 18.6702L15.205 19.1138ZM15.7533 19.25C16.4363 19.25 17.0475 18.6387 16.9167 17.875L16.4239 17.9593C16.4978 18.3912 16.154 18.75 15.7533 18.75V19.25ZM16.9167 17.8746L15.9911 12.5106L15.4984 12.5957L16.424 17.9597L16.9167 17.8746ZM15.9187 12.7327L19.8389 8.93471L19.491 8.5756L15.5708 12.3736L15.9187 12.7327ZM19.8389 8.93468C20.5416 8.2537 20.1527 7.06958 19.1852 6.93034L19.114 7.42524C19.6736 7.50579 19.8929 8.18609 19.491 8.57563L19.8389 8.93468ZM19.1853 6.93036L13.7664 6.14783L13.6949 6.6427L19.1139 7.42522L19.1853 6.93036ZM13.9545 6.28407L11.5312 1.40417L11.0834 1.62656L13.5067 6.50646L13.9545 6.28407ZM11.5312 1.40431C11.3147 0.967505 10.8911 0.75 10.4736 0.75V1.25C10.7192 1.25 10.9588 1.37544 11.0833 1.62643L11.5312 1.40431ZM10.244 2.06614L12.8796 7.3733L13.3274 7.15091L10.6918 1.84375L10.244 2.06614ZM13.0694 7.50977L18.9725 8.32167L19.0406 7.82633L13.1375 7.01444L13.0694 7.50977ZM18.8326 7.89444L14.5514 12.042L14.8993 12.4011L19.1805 8.25356L18.8326 7.89444ZM14.4792 12.2652L15.5128 18.0953L16.0051 18.008L14.9715 12.1779L14.4792 12.2652ZM15.8747 17.8301L10.5894 15.0685L10.3578 15.5117L15.6432 18.2733L15.8747 17.8301ZM10.3565 15.0692L5.09392 17.8573L5.32799 18.2991L10.5906 15.511L10.3565 15.0692ZM5.45731 18.1207L6.46815 12.2641L5.97544 12.1791L4.9646 18.0357L5.45731 18.1207ZM6.39468 12.041L2.10595 7.9351L1.76017 8.29627L6.04891 12.4022L6.39468 12.041ZM1.96879 8.36312L7.87942 7.50954L7.80796 7.01467L1.89733 7.86825L1.96879 8.36312ZM8.06779 7.37292L10.692 2.06576L10.2438 1.84414L7.61959 7.1513L8.06779 7.37292Z" fill="white"/>
</svg>
