<?xml version="1.0" encoding="UTF-8"?>
<svg width="38px" height="38px" viewBox="0 0 38 38" version="1.1" xmlns="http://www.w3.org/2000/svg" xmlns:xlink="http://www.w3.org/1999/xlink">
    <title>Group</title>
    <g id="Page-1" stroke="none" stroke-width="1" fill="none" fill-rule="evenodd">
        <g id="relationship-report" transform="translate(-317.000000, -69.000000)">
            <g id="Group" transform="translate(317.000000, 69.000000)">
                <rect id="Rectangle-Copy" fill="#FFFFFF" opacity="0.1" x="0" y="0" width="38" height="38" rx="8"></rect>
                <path d="M24.9090909,12.5454545 C24.056,12.5454545 23.3636364,13.2378182 23.3636364,14.0909091 C23.3636364,14.3405 23.4223636,14.5746364 23.5259091,14.7817273 C23.7809091,15.2901818 24.3048182,15.6363636 24.9090909,15.6363636 C25.7621818,15.6363636 26.4545455,14.944 26.4545455,14.0909091 C26.4545455,13.2378182 25.7621818,12.5454545 24.9090909,12.5454545 Z M21.8181818,14.0909091 C21.8181818,12.3839545 23.2021364,11 24.9090909,11 C26.6160455,11 28,12.3839545 28,14.0909091 C28,15.7978636 26.6160455,17.1818182 24.9090909,17.1818182 C23.9779545,17.1818182 23.1441818,16.7699545 22.5777727,16.1200909 L17.1138182,18.8524545 C17.1586364,19.0618636 17.1818182,19.2782273 17.1818182,19.5 C17.1818182,19.7217727 17.1586364,19.9381364 17.1138182,20.1475455 L22.5777727,22.8799091 C23.1441818,22.2300455 23.9779545,21.8181818 24.9090909,21.8181818 C26.6160455,21.8181818 28,23.2021364 28,24.9090909 C28,26.6160455 26.6160455,28 24.9090909,28 C23.2021364,28 21.8181818,26.6160455 21.8181818,24.9090909 C21.8181818,24.6873182 21.8413636,24.4709545 21.8861818,24.2615455 L16.4222273,21.5291818 C15.8558182,22.1790455 15.0220455,22.5909091 14.0909091,22.5909091 C12.3839545,22.5909091 11,21.2069545 11,19.5 C11,17.7930455 12.3839545,16.4090909 14.0909091,16.4090909 C15.0220455,16.4090909 15.8558182,16.8209545 16.4222273,17.4708182 L21.8861818,14.7384545 C21.8413636,14.5290455 21.8181818,14.3126818 21.8181818,14.0909091 Z M14.0909091,17.9545455 C13.2378182,17.9545455 12.5454545,18.6469091 12.5454545,19.5 C12.5454545,20.3530909 13.2378182,21.0454545 14.0909091,21.0454545 C14.6944091,21.0454545 15.2190909,20.6992727 15.4740909,20.1908182 C15.5776364,19.9837273 15.6363636,19.7495909 15.6363636,19.5 C15.6363636,19.2504091 15.5776364,19.0162727 15.4740909,18.8091818 C15.2190909,18.3007273 14.6944091,17.9545455 14.0909091,17.9545455 Z M24.9090909,23.3636364 C24.3048182,23.3636364 23.7809091,23.7098182 23.5259091,24.2182727 C23.4223636,24.4253636 23.3636364,24.6595 23.3636364,24.9090909 C23.3636364,25.7621818 24.056,26.4545455 24.9090909,26.4545455 C25.7621818,26.4545455 26.4545455,25.7621818 26.4545455,24.9090909 C26.4545455,24.056 25.7621818,23.3636364 24.9090909,23.3636364 L24.9090909,23.3636364 Z" id="Fill-936" fill="#AE9463"></path>
            </g>
        </g>
    </g>
</svg>