<svg width="66" height="66" viewBox="0 0 66 66" fill="none" xmlns="http://www.w3.org/2000/svg">
<g opacity="0.1" filter="url(#filter0_d)">
<rect x="14" y="12" width="38" height="38" rx="8" fill="white"/>
</g>
<path fill-rule="evenodd" clip-rule="evenodd" d="M31.1815 25.9539H39.2133C39.5046 25.9539 39.7407 26.19 39.7407 26.4812C39.7407 26.7725 39.5046 27.0086 39.2133 27.0086H31.1815C30.9607 27.6644 30.3403 28.1383 29.611 28.1383C28.8816 28.1383 28.2613 27.6644 28.0405 27.0086H26.7867C26.4955 27.0086 26.2594 26.7725 26.2594 26.4812C26.2594 26.19 26.4955 25.9539 26.7867 25.9539H28.0405C28.2613 25.2981 28.8816 24.8242 29.611 24.8242C30.3403 24.8242 30.9606 25.2981 31.1815 25.9539ZM29.0086 26.4812C29.0086 26.8134 29.2788 27.0836 29.611 27.0836C29.9431 27.0836 30.2133 26.8134 30.2133 26.4812C30.2133 26.1491 29.9431 25.8789 29.611 25.8789C29.2788 25.8789 29.0086 26.1491 29.0086 26.4812Z" fill="#AE9463"/>
<path d="M31.1815 25.9539L31.063 25.9938L31.0916 26.0789H31.1815V25.9539ZM31.1815 27.0086V26.8836H31.0917L31.063 26.9687L31.1815 27.0086ZM28.0405 27.0086L28.159 26.9687L28.1303 26.8836H28.0405V27.0086ZM28.0405 25.9539V26.0789H28.1303L28.1589 25.9938L28.0405 25.9539ZM39.2133 25.8289H31.1815V26.0789H39.2133V25.8289ZM39.8657 26.4812C39.8657 26.121 39.5736 25.8289 39.2133 25.8289V26.0789C39.4355 26.0789 39.6157 26.259 39.6157 26.4812H39.8657ZM39.2133 27.1336C39.5736 27.1336 39.8657 26.8415 39.8657 26.4812H39.6157C39.6157 26.7034 39.4355 26.8836 39.2133 26.8836V27.1336ZM31.1815 27.1336H39.2133V26.8836H31.1815V27.1336ZM29.611 28.2633C30.3958 28.2633 31.0626 27.7534 31.3 27.0485L31.063 26.9687C30.8587 27.5754 30.2849 28.0133 29.611 28.0133V28.2633ZM27.922 27.0485C28.1594 27.7534 28.8262 28.2633 29.611 28.2633V28.0133C28.9371 28.0133 28.3632 27.5754 28.159 26.9687L27.922 27.0485ZM26.7867 27.1336H28.0405V26.8836H26.7867V27.1336ZM26.1344 26.4812C26.1344 26.8415 26.4265 27.1336 26.7867 27.1336V26.8836C26.5645 26.8836 26.3844 26.7034 26.3844 26.4812H26.1344ZM26.7867 25.8289C26.4265 25.8289 26.1344 26.121 26.1344 26.4812H26.3844C26.3844 26.259 26.5645 26.0789 26.7867 26.0789V25.8289ZM28.0405 25.8289H26.7867V26.0789H28.0405V25.8289ZM29.611 24.6992C28.8261 24.6992 28.1593 25.209 27.922 25.914L28.1589 25.9938C28.3632 25.3871 28.9371 24.9492 29.611 24.9492V24.6992ZM31.2999 25.914C31.0626 25.209 30.3958 24.6992 29.611 24.6992V24.9492C30.2848 24.9492 30.8587 25.3871 31.063 25.9938L31.2999 25.914ZM29.611 26.9586C29.3479 26.9586 29.1336 26.7443 29.1336 26.4812H28.8836C28.8836 26.8824 29.2098 27.2086 29.611 27.2086V26.9586ZM30.0883 26.4812C30.0883 26.7443 29.874 26.9586 29.611 26.9586V27.2086C30.0121 27.2086 30.3383 26.8824 30.3383 26.4812H30.0883ZM29.611 26.0039C29.874 26.0039 30.0883 26.2182 30.0883 26.4812H30.3383C30.3383 26.0801 30.0121 25.7539 29.611 25.7539V26.0039ZM29.1336 26.4812C29.1336 26.2182 29.3479 26.0039 29.611 26.0039V25.7539C29.2098 25.7539 28.8836 26.0801 28.8836 26.4812H29.1336Z" fill="#AE9463"/>
<path fill-rule="evenodd" clip-rule="evenodd" d="M37.9595 30.4727H39.2133C39.5046 30.4727 39.7407 30.7088 39.7407 31C39.7407 31.2913 39.5046 31.5274 39.2133 31.5274H37.9596C37.7388 32.1832 37.1184 32.6571 36.3891 32.6571C35.6598 32.6571 35.0394 32.1832 34.8186 31.5274H26.7867C26.4955 31.5274 26.2594 31.2913 26.2594 31C26.2594 30.7088 26.4955 30.4727 26.7867 30.4727H34.8186C35.0394 29.8169 35.6597 29.343 36.389 29.343C37.1184 29.343 37.7387 29.8169 37.9595 30.4727ZM35.7867 31C35.7867 31.3322 36.057 31.6024 36.3891 31.6024C36.7212 31.6024 36.9914 31.3322 36.9914 31C36.9914 30.6679 36.7212 30.3977 36.3891 30.3977C36.057 30.3977 35.7867 30.6679 35.7867 31Z" fill="#AE9463"/>
<path d="M37.9595 30.4727L37.8411 30.5126L37.8697 30.5977H37.9595V30.4727ZM37.9596 31.5274V31.4024H37.8698L37.8411 31.4875L37.9596 31.5274ZM34.8186 31.5274L34.937 31.4875L34.9084 31.4024H34.8186V31.5274ZM34.8186 30.4727V30.5977H34.9084L34.937 30.5126L34.8186 30.4727ZM39.2133 30.3477H37.9595V30.5977H39.2133V30.3477ZM39.8657 31C39.8657 30.6398 39.5736 30.3477 39.2133 30.3477V30.5977C39.4355 30.5977 39.6157 30.7778 39.6157 31H39.8657ZM39.2133 31.6524C39.5736 31.6524 39.8657 31.3603 39.8657 31H39.6157C39.6157 31.2222 39.4355 31.4024 39.2133 31.4024V31.6524ZM37.9596 31.6524H39.2133V31.4024H37.9596V31.6524ZM36.3891 32.7821C37.1739 32.7821 37.8407 32.2722 38.078 31.5673L37.8411 31.4875C37.6368 32.0942 37.0629 32.5321 36.3891 32.5321V32.7821ZM34.7001 31.5673C34.9375 32.2722 35.6043 32.7821 36.3891 32.7821V32.5321C35.7152 32.5321 35.1413 32.0942 34.937 31.4875L34.7001 31.5673ZM26.7867 31.6524H34.8186V31.4024H26.7867V31.6524ZM26.1344 31C26.1344 31.3603 26.4265 31.6524 26.7867 31.6524V31.4024C26.5645 31.4024 26.3844 31.2222 26.3844 31H26.1344ZM26.7867 30.3477C26.4265 30.3477 26.1344 30.6398 26.1344 31H26.3844C26.3844 30.7778 26.5645 30.5977 26.7867 30.5977V30.3477ZM34.8186 30.3477H26.7867V30.5977H34.8186V30.3477ZM36.389 29.218C35.6043 29.218 34.9375 29.7278 34.7001 30.4328L34.937 30.5126C35.1413 29.9059 35.7152 29.468 36.389 29.468V29.218ZM38.078 30.4328C37.8406 29.7278 37.1738 29.218 36.389 29.218V29.468C37.0629 29.468 37.6368 29.9059 37.8411 30.5126L38.078 30.4328ZM36.3891 31.4774C36.126 31.4774 35.9117 31.2631 35.9117 31H35.6617C35.6617 31.4012 35.9879 31.7274 36.3891 31.7274V31.4774ZM36.8664 31C36.8664 31.2631 36.6522 31.4774 36.3891 31.4774V31.7274C36.7902 31.7274 37.1164 31.4012 37.1164 31H36.8664ZM36.3891 30.5227C36.6522 30.5227 36.8664 30.737 36.8664 31H37.1164C37.1164 30.5989 36.7902 30.2727 36.3891 30.2727V30.5227ZM35.9117 31C35.9117 30.737 36.126 30.5227 36.3891 30.5227V30.2727C35.9879 30.2727 35.6617 30.5989 35.6617 31H35.9117Z" fill="#AE9463"/>
<path fill-rule="evenodd" clip-rule="evenodd" d="M33.4408 34.9914H39.2133C39.5046 34.9914 39.7407 35.2275 39.7407 35.5187C39.7407 35.8099 39.5046 36.0461 39.2133 36.0461H33.4408C33.22 36.7019 32.5997 37.1757 31.8703 37.1757C31.141 37.1757 30.5207 36.7019 30.2998 36.0461H26.7867C26.4955 36.0461 26.2594 35.8099 26.2594 35.5187C26.2594 35.2275 26.4955 34.9914 26.7867 34.9914H30.2998C30.5207 34.3355 31.141 33.8617 31.8703 33.8617C32.5997 33.8617 33.22 34.3355 33.4408 34.9914ZM31.268 35.5187C31.268 35.8509 31.5382 36.1211 31.8703 36.1211C32.2025 36.1211 32.4727 35.8508 32.4727 35.5187C32.4727 35.1866 32.2025 34.9164 31.8703 34.9164C31.5382 34.9164 31.268 35.1866 31.268 35.5187Z" fill="#AE9463"/>
<path d="M33.4408 34.9914L33.3224 35.0313L33.351 35.1164H33.4408V34.9914ZM33.4408 36.0461V35.9211H33.351L33.3224 36.0062L33.4408 36.0461ZM30.2998 36.0461L30.4183 36.0062L30.3896 35.9211H30.2998V36.0461ZM30.2998 34.9914V35.1164H30.3896L30.4183 35.0313L30.2998 34.9914ZM39.2133 34.8664H33.4408V35.1164H39.2133V34.8664ZM39.8657 35.5187C39.8657 35.1584 39.5736 34.8664 39.2133 34.8664V35.1164C39.4355 35.1164 39.6157 35.2965 39.6157 35.5187H39.8657ZM39.2133 36.1711C39.5736 36.1711 39.8657 35.879 39.8657 35.5187H39.6157C39.6157 35.7409 39.4355 35.9211 39.2133 35.9211V36.1711ZM33.4408 36.1711H39.2133V35.9211H33.4408V36.1711ZM31.8703 37.3007C32.6552 37.3007 33.3219 36.7909 33.5593 36.0859L33.3224 36.0062C33.1181 36.6129 32.5442 37.0507 31.8703 37.0507V37.3007ZM30.1814 36.0859C30.4187 36.7909 31.0855 37.3007 31.8703 37.3007V37.0507C31.1964 37.0507 30.6226 36.6129 30.4183 36.0062L30.1814 36.0859ZM26.7867 36.1711H30.2998V35.9211H26.7867V36.1711ZM26.1344 35.5187C26.1344 35.879 26.4265 36.1711 26.7867 36.1711V35.9211C26.5645 35.9211 26.3844 35.7409 26.3844 35.5187H26.1344ZM26.7867 34.8664C26.4265 34.8664 26.1344 35.1584 26.1344 35.5187H26.3844C26.3844 35.2965 26.5645 35.1164 26.7867 35.1164V34.8664ZM30.2998 34.8664H26.7867V35.1164H30.2998V34.8664ZM31.8703 33.7367C31.0855 33.7367 30.4187 34.2465 30.1814 34.9515L30.4183 35.0313C30.6226 34.4246 31.1964 33.9867 31.8703 33.9867V33.7367ZM33.5593 34.9515C33.3219 34.2465 32.6552 33.7367 31.8703 33.7367V33.9867C32.5442 33.9867 33.1181 34.4246 33.3224 35.0313L33.5593 34.9515ZM31.8703 35.9961C31.6073 35.9961 31.393 35.7818 31.393 35.5187H31.143C31.143 35.9199 31.4692 36.2461 31.8703 36.2461V35.9961ZM32.3477 35.5187C32.3477 35.7818 32.1334 35.9961 31.8703 35.9961V36.2461C32.2715 36.2461 32.5977 35.9199 32.5977 35.5187H32.3477ZM31.8703 35.0414C32.1334 35.0414 32.3477 35.2556 32.3477 35.5187H32.5977C32.5977 35.1175 32.2715 34.7914 31.8703 34.7914V35.0414ZM31.393 35.5187C31.393 35.2557 31.6073 35.0414 31.8703 35.0414V34.7914C31.4692 34.7914 31.143 35.1176 31.143 35.5187H31.393Z" fill="#AE9463"/>
<defs>
<filter id="filter0_d" x="0" y="0" width="66" height="66" filterUnits="userSpaceOnUse" color-interpolation-filters="sRGB">
<feFlood flood-opacity="0" result="BackgroundImageFix"/>
<feColorMatrix in="SourceAlpha" type="matrix" values="0 0 0 0 0 0 0 0 0 0 0 0 0 0 0 0 0 0 127 0"/>
<feOffset dy="2"/>
<feGaussianBlur stdDeviation="7"/>
<feColorMatrix type="matrix" values="0 0 0 0 0 0 0 0 0 0 0 0 0 0 0 0 0 0 0.1 0"/>
<feBlend mode="normal" in2="BackgroundImageFix" result="effect1_dropShadow"/>
<feBlend mode="normal" in="SourceGraphic" in2="effect1_dropShadow" result="shape"/>
</filter>
</defs>
</svg>
