<svg width="18" height="18" viewBox="0 0 18 18" fill="none" xmlns="http://www.w3.org/2000/svg">
<path fill-rule="evenodd" clip-rule="evenodd" d="M9.04181 1.62876C4.99353 1.62876 1.71239 4.9099 1.71239 8.95819C1.71239 10.3638 2.10736 11.675 2.79226 12.7898L3.01295 13.149L1.63421 16.3658L4.85101 14.987L5.21097 15.2077C6.32504 15.8926 7.63619 16.2876 9.04181 16.2876C13.0901 16.2876 16.3712 13.0065 16.3712 8.95819C16.3712 4.9099 13.0901 1.62876 9.04181 1.62876ZM0.0836277 8.95819C0.0836277 4.01082 4.09445 0 9.04181 0C13.9892 0 18 4.01082 18 8.95819C18 13.9055 13.9892 17.9164 9.04181 17.9164C7.47983 17.9164 6.00906 17.5157 4.72885 16.8121L2.27594 17.8634C0.924068 18.4425 -0.442462 17.0759 0.136562 15.7241L1.18793 13.2711C0.484303 11.9909 0.0836277 10.5202 0.0836277 8.95819ZM4.96991 7.32943C4.96991 6.87989 5.33475 6.51504 5.78429 6.51504H8.22743C8.67697 6.51504 9.04181 6.87989 9.04181 7.32943C9.04181 7.77896 8.67697 8.14381 8.22743 8.14381H5.78429C5.33475 8.14381 4.96991 7.77896 4.96991 7.32943ZM4.96991 10.5869C4.96991 10.1374 5.33475 9.77257 5.78429 9.77257H12.2993C12.7489 9.77257 13.1137 10.1374 13.1137 10.5869C13.1137 11.0365 12.7489 11.4013 12.2993 11.4013H5.78429C5.33475 11.4013 4.96991 11.0365 4.96991 10.5869Z" fill="white"/>
</svg>
