<svg width="20" height="19" viewBox="0 0 20 19" fill="none" xmlns="http://www.w3.org/2000/svg">
<path d="M7.57669 11.5012C7.57212 11.4787 7.56544 11.4566 7.55666 11.4355C7.54787 11.4141 7.53697 11.3937 7.52431 11.3747C7.5113 11.3553 7.49654 11.3374 7.48037 11.3212C7.3988 11.2397 7.27751 11.2021 7.16326 11.2253C7.14076 11.2298 7.11861 11.2365 7.09751 11.2453C7.07607 11.2541 7.05568 11.265 7.03669 11.2776C7.01736 11.2903 6.99943 11.3051 6.98326 11.3212C6.96708 11.3374 6.95232 11.3553 6.93966 11.3747C6.92701 11.3937 6.91611 11.4141 6.90732 11.4355C6.89853 11.4566 6.89185 11.4787 6.88728 11.5012C6.88271 11.5237 6.88025 11.5469 6.88025 11.5698C6.88025 11.5926 6.88271 11.6159 6.88728 11.6387C6.89185 11.6609 6.89853 11.683 6.90732 11.7044C6.91611 11.7255 6.92701 11.7459 6.93966 11.7649C6.95232 11.7843 6.96708 11.8022 6.98326 11.8184C6.99943 11.8345 7.01736 11.8493 7.03669 11.8623C7.05568 11.875 7.07607 11.8859 7.09751 11.8946C7.11861 11.9034 7.14076 11.9101 7.16326 11.9147C7.18576 11.9193 7.20896 11.9214 7.23181 11.9214C7.32427 11.9214 7.41498 11.8837 7.48037 11.8184C7.49654 11.8022 7.5113 11.7843 7.52431 11.7649C7.53697 11.7459 7.54787 11.7255 7.55666 11.7044C7.56544 11.683 7.57212 11.6609 7.57669 11.6387C7.58126 11.6159 7.58337 11.5926 7.58337 11.5698C7.58337 11.5469 7.58126 11.5237 7.57669 11.5012Z" fill="white"/>
<path fill-rule="evenodd" clip-rule="evenodd" d="M18.6484 17.572H17.9202V13.8122V12.2705C17.9202 11.6902 17.4481 11.2181 16.8678 11.2181H16.2675V9.09111V7.75032C16.2675 7.17007 15.7954 6.69795 15.2151 6.69795H14.1359V5.67723C14.3771 5.61634 14.6054 5.49199 14.7937 5.30369C15.2265 4.87092 15.3352 4.21142 15.0643 3.66253L14.0996 1.70802C14.0403 1.58803 13.9181 1.51205 13.7843 1.51205C13.6505 1.51205 13.5283 1.58803 13.4691 1.70802L12.5043 3.66256C12.2334 4.21139 12.3422 4.87092 12.775 5.30373C12.9633 5.49202 13.1916 5.61637 13.4328 5.67726V6.69799H10.3516V5.18669C10.5927 5.1258 10.821 5.00145 11.0093 4.81316C11.4421 4.38038 11.5509 3.72089 11.28 3.17199L10.3152 1.21745C10.256 1.09746 10.1338 1.02148 10 1.02148C9.8662 1.02148 9.74399 1.09746 9.68475 1.21745L8.72 3.17203C8.44912 3.72089 8.55789 4.38038 8.99066 4.81316C9.17896 5.00145 9.40727 5.1258 9.64844 5.18669V6.69799H6.56724V5.67835C6.81404 5.61612 7.04037 5.48837 7.22501 5.30373C7.65782 4.87095 7.76659 4.21142 7.49568 3.66256L6.53092 1.70802C6.47168 1.58803 6.34948 1.51205 6.21568 1.51205C6.08187 1.51205 5.95967 1.58803 5.90043 1.70802L4.93567 3.6626C4.66479 4.21142 4.77357 4.87095 5.20634 5.30376C5.39098 5.4884 5.61732 5.61616 5.86411 5.67839V6.69802H4.78489C4.2046 6.69802 3.73252 7.1701 3.73252 7.75039V9.09125V11.2182H3.13216C2.55187 11.2182 2.07979 11.6903 2.07979 12.2706V13.8123V17.5721H1.35156C1.15739 17.5721 1 17.7295 1 17.9237C1 18.1178 1.15739 18.2752 1.35156 18.2752H2.43135H17.5686H18.6484C18.8426 18.2752 19 18.1178 19 17.9237C19 17.7295 18.8426 17.572 18.6484 17.572ZM13.2722 4.80648C13.0525 4.58689 12.9974 4.25224 13.1348 3.97373L13.7844 2.65787L14.4339 3.97373C14.5713 4.25224 14.5161 4.58689 14.2966 4.80648C14.2478 4.85524 14.1935 4.895 14.136 4.92692C13.918 5.04793 13.6508 5.04793 13.4328 4.92692C13.3752 4.89504 13.3209 4.85527 13.2722 4.80648ZM9.35052 3.4832C9.21306 3.7617 9.26826 4.09636 9.48784 4.31594C9.53661 4.36474 9.59092 4.40446 9.64847 4.43642C9.86648 4.55743 10.1336 4.55743 10.3516 4.43642C10.4091 4.4045 10.4634 4.36474 10.5122 4.31598C10.7318 4.09639 10.787 3.76174 10.6495 3.48323L10 2.16737L9.35052 3.4832ZM5.70352 4.80648C5.4839 4.58689 5.42874 4.25224 5.5662 3.97373L6.21571 2.65787L6.86522 3.97373C7.00268 4.2522 6.94749 4.58686 6.7279 4.80648C6.67914 4.85524 6.62482 4.895 6.56731 4.92692C6.34934 5.04793 6.08219 5.04793 5.86418 4.92692C5.8066 4.89504 5.75228 4.85527 5.70352 4.80648ZM15.2151 7.40108H4.78489C4.59234 7.40108 4.43564 7.55773 4.43564 7.75032H4.43568V8.85412C4.59054 8.90271 4.75736 8.92514 4.95423 8.92514C5.47845 8.92514 5.71769 8.76563 6.02056 8.5637L6.02066 8.56363C6.35778 8.33889 6.73989 8.08416 7.47694 8.08416C8.21403 8.08416 8.59614 8.33889 8.93326 8.56363L8.93336 8.5637C9.23623 8.76563 9.47547 8.92514 9.99975 8.92514C10.524 8.92514 10.7633 8.76564 11.0662 8.56372L11.0662 8.5637C11.4033 8.33891 11.7855 8.08416 12.5226 8.08416C13.2598 8.08416 13.642 8.33891 13.9792 8.5637C14.2821 8.76563 14.5213 8.92514 15.0457 8.92514C15.2426 8.92514 15.4095 8.90274 15.5644 8.85409V7.75032C15.5644 7.55773 15.4077 7.40108 15.2151 7.40108ZM17.2171 17.572H2.78291V14.1932C3.08181 14.2482 3.27222 14.3749 3.49775 14.5252C3.83489 14.75 4.21701 15.0048 4.9542 15.0048C5.69125 15.0048 6.07336 14.7501 6.41048 14.5253L6.41058 14.5252C6.71345 14.3233 6.95269 14.1638 7.47691 14.1638C8.00116 14.1638 8.24043 14.3233 8.5433 14.5252C8.88045 14.75 9.26256 15.0048 9.99972 15.0048C10.7368 15.0048 11.1189 14.7501 11.4561 14.5253L11.4562 14.5252L11.4562 14.5252C11.7591 14.3233 11.9983 14.1638 12.5226 14.1638C13.0469 14.1638 13.2862 14.3233 13.5891 14.5252L13.5893 14.5253C13.9264 14.7501 14.3085 15.0048 15.0456 15.0048C15.7827 15.0048 16.1649 14.7501 16.502 14.5253L16.5021 14.5252C16.7277 14.3749 16.9182 14.2481 17.2171 14.1932V17.572ZM16.1121 13.9402C16.3911 13.7542 16.7009 13.5477 17.2171 13.4819V12.2705C17.2171 12.0779 17.0604 11.9213 16.8678 11.9213H8.63344C8.43927 11.9213 8.28188 11.7639 8.28188 11.5697C8.28188 11.3755 8.43927 11.2181 8.63344 11.2181H15.5644V9.57869C15.4025 9.61177 15.2315 9.6283 15.0456 9.6283C14.3084 9.6283 13.9263 9.37356 13.5891 9.14877C13.2862 8.94683 13.0469 8.78732 12.5226 8.78732C11.9983 8.78732 11.7591 8.94682 11.4562 9.14875L11.4562 9.14877L11.4561 9.1488C11.119 9.37354 10.7368 9.6283 9.99972 9.6283C9.26263 9.6283 8.88052 9.37357 8.5434 9.14883L8.5433 9.14877C8.24043 8.94683 8.00119 8.78732 7.47691 8.78732C6.95269 8.78732 6.71345 8.94683 6.41058 9.14877L6.41048 9.14883C6.07336 9.37357 5.69125 9.6283 4.9542 9.6283C4.76836 9.6283 4.59743 9.61181 4.43564 9.57873V11.2181H5.83022C6.02439 11.2181 6.18179 11.3755 6.18179 11.5697C6.18179 11.7638 6.02439 11.9212 5.83022 11.9212H3.13216C2.93961 11.9212 2.78291 12.0779 2.78291 12.2705V13.4819C3.29904 13.5477 3.60875 13.7542 3.8877 13.9401L3.88777 13.9402C4.19064 14.1421 4.42988 14.3016 4.95416 14.3016C5.47838 14.3016 5.71762 14.1421 6.02049 13.9402L6.02059 13.9401C6.35771 13.7154 6.73982 13.4606 7.47687 13.4606C8.21406 13.4606 8.59618 13.7154 8.93332 13.9402C9.2362 14.1421 9.47543 14.3016 9.99972 14.3016C10.524 14.3016 10.7632 14.1421 11.0661 13.9402L11.0661 13.9402L11.0662 13.9401C11.4033 13.7154 11.7855 13.4606 12.5226 13.4606C13.2597 13.4606 13.6419 13.7154 13.979 13.9401L13.9791 13.9402L13.9792 13.9402C14.2821 14.1421 14.5213 14.3016 15.0456 14.3016C15.5699 14.3016 15.8092 14.1421 16.1121 13.9402Z" fill="white"/>
<path d="M17.9202 17.572H17.6702V17.822H17.9202V17.572ZM16.2675 11.2181H16.0175V11.4681H16.2675V11.2181ZM14.1359 6.69795H13.8859V6.94795H14.1359V6.69795ZM14.1359 5.67723L14.0747 5.43483L13.8859 5.4825V5.67723H14.1359ZM14.7937 5.30369L14.6169 5.12691L14.6169 5.12691L14.7937 5.30369ZM15.0643 3.66253L15.2885 3.55188L15.2885 3.55187L15.0643 3.66253ZM14.0996 1.70802L14.3237 1.59736L14.3237 1.59734L14.0996 1.70802ZM13.4691 1.70802L13.2449 1.59734L13.2449 1.59736L13.4691 1.70802ZM12.5043 3.66256L12.7285 3.77322L12.7285 3.77322L12.5043 3.66256ZM12.775 5.30373L12.5982 5.4805L12.775 5.30373ZM13.4328 5.67726H13.6828V5.48254L13.494 5.43487L13.4328 5.67726ZM13.4328 6.69799V6.94799H13.6828V6.69799H13.4328ZM10.3516 6.69799H10.1016V6.94799H10.3516V6.69799ZM10.3516 5.18669L10.2904 4.9443L10.1016 4.99197V5.18669H10.3516ZM11.0093 4.81316L10.8326 4.63637L10.8326 4.63638L11.0093 4.81316ZM11.28 3.17199L11.5042 3.06136L11.5042 3.06134L11.28 3.17199ZM10.3152 1.21745L10.5394 1.10679L10.5394 1.10677L10.3152 1.21745ZM9.68475 1.21745L9.46059 1.10677L9.46058 1.10679L9.68475 1.21745ZM8.72 3.17203L8.49582 3.06138L8.49581 3.06139L8.72 3.17203ZM8.99066 4.81316L9.16744 4.63638L8.99066 4.81316ZM9.64844 5.18669H9.89844V4.99197L9.70964 4.9443L9.64844 5.18669ZM9.64844 6.69799V6.94799H9.89844V6.69799H9.64844ZM6.56724 6.69799H6.31724V6.94799H6.56724V6.69799ZM6.56724 5.67835L6.50612 5.43594L6.31724 5.48356V5.67835H6.56724ZM7.22501 5.30373L7.04824 5.12694L7.04823 5.12695L7.22501 5.30373ZM7.49568 3.66256L7.71986 3.55191L7.71986 3.55191L7.49568 3.66256ZM6.53092 1.70802L6.7551 1.59736L6.75509 1.59734L6.53092 1.70802ZM5.90043 1.70802L5.67626 1.59734L5.67625 1.59736L5.90043 1.70802ZM4.93567 3.6626L4.71149 3.55195L4.71149 3.55195L4.93567 3.6626ZM5.20634 5.30376L5.02956 5.48053L5.02956 5.48054L5.20634 5.30376ZM5.86411 5.67839H6.11411V5.4836L5.92523 5.43597L5.86411 5.67839ZM5.86411 6.69802V6.94802H6.11411V6.69802H5.86411ZM3.73252 11.2182V11.4682H3.98252V11.2182H3.73252ZM2.07979 17.5721V17.8221H2.32979V17.5721H2.07979ZM13.1348 3.97373L12.9107 3.86308L12.9107 3.86308L13.1348 3.97373ZM13.2722 4.80648L13.449 4.62976L13.4489 4.62969L13.2722 4.80648ZM13.7844 2.65787L14.0085 2.54721L13.7844 2.09305L13.5602 2.54721L13.7844 2.65787ZM14.4339 3.97373L14.6581 3.86308L14.658 3.86308L14.4339 3.97373ZM14.2966 4.80648L14.1198 4.6297V4.6297L14.2966 4.80648ZM14.136 4.92692L14.0146 4.70833L14.0146 4.70834L14.136 4.92692ZM13.4328 4.92692L13.5542 4.70834L13.5539 4.70821L13.4328 4.92692ZM9.48784 4.31594L9.66469 4.13923L9.66462 4.13916L9.48784 4.31594ZM9.35052 3.4832L9.12634 3.37254L9.12634 3.37255L9.35052 3.4832ZM9.64847 4.43642L9.52711 4.65499L9.52714 4.65501L9.64847 4.43642ZM10.3516 4.43642L10.2303 4.21783L10.2303 4.21785L10.3516 4.43642ZM10.5122 4.31598L10.3354 4.1392V4.1392L10.5122 4.31598ZM10.6495 3.48323L10.8737 3.37258L10.8737 3.37258L10.6495 3.48323ZM10 2.16737L10.2242 2.05671L10 1.60254L9.77582 2.05672L10 2.16737ZM5.5662 3.97373L5.34202 3.86308L5.34202 3.86308L5.5662 3.97373ZM5.70352 4.80648L5.88036 4.62976L5.88028 4.62969L5.70352 4.80648ZM6.21571 2.65787L6.43989 2.54721L6.21571 2.09305L5.99153 2.54721L6.21571 2.65787ZM6.86522 3.97373L6.64104 4.08438L6.64105 4.08439L6.86522 3.97373ZM6.7279 4.80648L6.90468 4.98325L6.90469 4.98324L6.7279 4.80648ZM6.56731 4.92692L6.44599 4.70833L6.44596 4.70835L6.56731 4.92692ZM5.86418 4.92692L5.98551 4.70834L5.98529 4.70821L5.86418 4.92692ZM4.43564 7.75032H4.18564V8.00032H4.43564V7.75032ZM4.43568 7.75032H4.68568V7.50032H4.43568V7.75032ZM4.43568 8.85412H4.18568V9.0377L4.36084 9.09266L4.43568 8.85412ZM6.02056 8.5637L5.88188 8.35568L5.88187 8.35569L6.02056 8.5637ZM6.02066 8.56363L5.88199 8.35561L5.88198 8.35562L6.02066 8.56363ZM8.93326 8.56363L9.07194 8.35562L9.07193 8.35561L8.93326 8.56363ZM8.93336 8.5637L9.07205 8.35569L9.07203 8.35568L8.93336 8.5637ZM11.0662 8.56372L11.2049 8.77178L11.2095 8.76852L11.0662 8.56372ZM11.0662 8.5637L10.9275 8.35564L10.9228 8.35889L11.0662 8.5637ZM13.9792 8.5637L14.1178 8.35568L13.9792 8.5637ZM15.5644 8.85409L15.6393 9.0926L15.8144 9.0376V8.85409H15.5644ZM2.78291 17.572H2.53291V17.822H2.78291V17.572ZM17.2171 17.572V17.822H17.4671V17.572H17.2171ZM2.78291 14.1932L2.82814 13.9473L2.53291 13.893V14.1932H2.78291ZM3.49775 14.5252L3.63643 14.3172L3.63643 14.3172L3.49775 14.5252ZM6.41048 14.5253L6.54915 14.7333L6.54915 14.7333L6.41048 14.5253ZM6.41058 14.5252L6.54926 14.7333L6.54927 14.7333L6.41058 14.5252ZM8.5433 14.5252L8.40461 14.7333L8.40462 14.7333L8.5433 14.5252ZM11.4561 14.5253L11.5947 14.7333L11.5947 14.7333L11.4561 14.5253ZM11.4562 14.5252L11.5949 14.7333L11.5995 14.7301L11.4562 14.5252ZM11.4562 14.5252L11.3175 14.3172L11.3128 14.3204L11.4562 14.5252ZM13.5891 14.5252L13.4504 14.7333L13.5891 14.5252ZM13.5893 14.5253L13.4506 14.7334L13.4506 14.7334L13.5893 14.5253ZM16.502 14.5253L16.3646 14.3165L16.3634 14.3173L16.502 14.5253ZM16.5021 14.5252L16.6396 14.7341L16.6408 14.7333L16.5021 14.5252ZM17.2171 14.1932H17.4671V13.893L17.1719 13.9473L17.2171 14.1932ZM17.2171 13.4819L17.2487 13.7299L17.4671 13.7021V13.4819H17.2171ZM16.1121 13.9402L16.2508 14.1482H16.2508L16.1121 13.9402ZM15.5644 11.2181V11.4681H15.8144V11.2181H15.5644ZM15.5644 9.57869H15.8144V9.27241L15.5143 9.33376L15.5644 9.57869ZM13.5891 9.14877L13.7278 8.94075L13.7278 8.94075L13.5891 9.14877ZM11.4562 9.14875L11.5905 9.35971L11.5949 9.35676L11.4562 9.14875ZM11.4562 9.14877L11.3218 8.93761L11.312 8.94452L11.4562 9.14877ZM11.4561 9.1488L11.5948 9.35689L11.6003 9.35304L11.4561 9.1488ZM8.5434 9.14883L8.40472 9.35684L8.40473 9.35685L8.5434 9.14883ZM8.5433 9.14877L8.40461 9.35677L8.40463 9.35678L8.5433 9.14877ZM6.41058 9.14877L6.54926 9.35678L6.54927 9.35677L6.41058 9.14877ZM6.41048 9.14883L6.54915 9.35685L6.54916 9.35684L6.41048 9.14883ZM4.43564 9.57873L4.48573 9.33379L4.18564 9.27244V9.57873H4.43564ZM4.43564 11.2181H4.18564V11.4681H4.43564V11.2181ZM2.78291 13.4819H2.53291V13.7021L2.75133 13.7299L2.78291 13.4819ZM3.8877 13.9401L4.02738 13.7328L4.02638 13.7321L3.8877 13.9401ZM3.88777 13.9402L3.74809 14.1475L3.74908 14.1482L3.88777 13.9402ZM6.02049 13.9402L6.15918 14.1482L6.16057 14.1472L6.02049 13.9402ZM6.02059 13.9401L5.88191 13.7321L5.88051 13.733L6.02059 13.9401ZM8.93332 13.9402L9.07201 13.7322L9.07201 13.7322L8.93332 13.9402ZM11.0661 13.9402L11.2048 14.1483L11.2095 14.145L11.0661 13.9402ZM11.0661 13.9402L11.2095 14.145L11.2103 14.1444L11.0661 13.9402ZM11.0662 13.9401L10.9275 13.7321L10.922 13.7359L11.0662 13.9401ZM13.979 13.9401L14.119 13.733L14.1177 13.7321L13.979 13.9401ZM13.9791 13.9402L13.8391 14.1474L13.8439 14.1505L13.9791 13.9402ZM13.9792 13.9402L14.1179 13.7322L14.1144 13.7299L13.9792 13.9402ZM17.9202 17.822H18.6484V17.322H17.9202V17.822ZM17.6702 13.8122V17.572H18.1702V13.8122H17.6702ZM17.6702 12.2705V13.8122H18.1702V12.2705H17.6702ZM16.8678 11.4681C17.3101 11.4681 17.6702 11.8283 17.6702 12.2705H18.1702C18.1702 11.5521 17.5862 10.9681 16.8678 10.9681V11.4681ZM16.2675 11.4681H16.8678V10.9681H16.2675V11.4681ZM16.0175 9.09111V11.2181H16.5175V9.09111H16.0175ZM16.0175 7.75032V9.09111H16.5175V7.75032H16.0175ZM15.2151 6.94795C15.6573 6.94795 16.0175 7.30813 16.0175 7.75032H16.5175C16.5175 7.032 15.9335 6.44795 15.2151 6.44795V6.94795ZM14.1359 6.94795H15.2151V6.44795H14.1359V6.94795ZM13.8859 5.67723V6.69795H14.3859V5.67723H13.8859ZM14.6169 5.12691C14.4616 5.28224 14.2736 5.38461 14.0747 5.43483L14.1971 5.91962C14.4805 5.84806 14.7492 5.70174 14.9704 5.48047L14.6169 5.12691ZM14.8401 3.77317C15.0636 4.22601 14.9739 4.76989 14.6169 5.12691L14.9704 5.48048C15.479 4.97194 15.6068 4.19684 15.2885 3.55188L14.8401 3.77317ZM13.8754 1.81867L14.8402 3.77318L15.2885 3.55187L14.3237 1.59736L13.8754 1.81867ZM13.7843 1.76205C13.823 1.76205 13.8583 1.78399 13.8754 1.81869L14.3237 1.59734C14.2224 1.39206 14.0133 1.26205 13.7843 1.26205V1.76205ZM13.6932 1.81869C13.7104 1.78399 13.7457 1.76205 13.7843 1.76205V1.26205C13.5553 1.26205 13.3463 1.39206 13.2449 1.59734L13.6932 1.81869ZM12.7285 3.77322L13.6933 1.81867L13.2449 1.59736L12.2801 3.55191L12.7285 3.77322ZM12.9518 5.12695C12.5947 4.76989 12.505 4.22597 12.7285 3.77322L12.2801 3.5519C11.9618 4.19681 12.0897 4.97194 12.5982 5.4805L12.9518 5.12695ZM13.494 5.43487C13.295 5.38464 13.1071 5.28227 12.9518 5.12695L12.5982 5.4805C12.8195 5.70177 13.0881 5.8481 13.3716 5.91966L13.494 5.43487ZM13.6828 6.69799V5.67726H13.1828V6.69799H13.6828ZM10.3516 6.94799H13.4328V6.44799H10.3516V6.94799ZM10.1016 5.18669V6.69799H10.6016V5.18669H10.1016ZM10.8326 4.63638C10.6772 4.7917 10.4893 4.89407 10.2904 4.9443L10.4128 5.42908C10.6962 5.35753 10.9648 5.2112 11.1861 4.98993L10.8326 4.63638ZM11.0558 3.28263C11.2793 3.73548 11.1896 4.27937 10.8326 4.63637L11.1861 4.98994C11.6947 4.4814 11.8225 3.7063 11.5042 3.06136L11.0558 3.28263ZM10.0911 1.3281L11.0558 3.28265L11.5042 3.06134L10.5394 1.10679L10.0911 1.3281ZM10 1.27148C10.0386 1.27148 10.0739 1.29342 10.0911 1.32812L10.5394 1.10677C10.4381 0.901495 10.229 0.771484 10 0.771484V1.27148ZM9.90892 1.32812C9.92605 1.29342 9.96137 1.27148 10 1.27148V0.771484C9.77102 0.771484 9.56193 0.901495 9.46059 1.10677L9.90892 1.32812ZM8.94417 3.28268L9.90893 1.3281L9.46058 1.10679L8.49582 3.06138L8.94417 3.28268ZM9.16744 4.63638C8.81042 4.27936 8.72071 3.73547 8.94418 3.28267L8.49581 3.06139C8.17752 3.70631 8.30536 4.4814 8.81389 4.98993L9.16744 4.63638ZM9.70964 4.9443C9.51071 4.89407 9.32276 4.7917 9.16744 4.63638L8.81389 4.98993C9.03516 5.2112 9.30382 5.35753 9.58724 5.42908L9.70964 4.9443ZM9.89844 6.69799V5.18669H9.39844V6.69799H9.89844ZM6.56724 6.94799H9.64844V6.44799H6.56724V6.94799ZM6.31724 5.67835V6.69799H6.81724V5.67835H6.31724ZM7.04823 5.12695C6.89538 5.2798 6.70896 5.38479 6.50612 5.43594L6.62836 5.92076C6.91911 5.84746 7.18536 5.69693 7.40179 5.4805L7.04823 5.12695ZM7.2715 3.77322C7.495 4.22601 7.40529 4.76993 7.04824 5.12694L7.40178 5.48051C7.91035 4.97198 8.03819 4.19684 7.71986 3.55191L7.2715 3.77322ZM6.30674 1.81867L7.2715 3.77322L7.71986 3.55191L6.7551 1.59736L6.30674 1.81867ZM6.21568 1.76205C6.2543 1.76205 6.28962 1.78399 6.30675 1.81869L6.75509 1.59734C6.65374 1.39206 6.44466 1.26205 6.21568 1.26205V1.76205ZM6.1246 1.81869C6.14173 1.78399 6.17705 1.76205 6.21568 1.76205V1.26205C5.98669 1.26205 5.77761 1.39206 5.67626 1.59734L6.1246 1.81869ZM5.15985 3.77325L6.12461 1.81867L5.67625 1.59736L4.71149 3.55195L5.15985 3.77325ZM5.38312 5.12699C5.02609 4.76993 4.93639 4.226 5.15985 3.77324L4.71149 3.55195C4.39319 4.19685 4.52104 4.97197 5.02956 5.48053L5.38312 5.12699ZM5.92523 5.43597C5.72239 5.38483 5.53597 5.27984 5.38312 5.12698L5.02956 5.48054C5.24599 5.69696 5.51224 5.84749 5.80299 5.9208L5.92523 5.43597ZM6.11411 6.69802V5.67839H5.61411V6.69802H6.11411ZM4.78489 6.94802H5.86411V6.44802H4.78489V6.94802ZM3.98252 7.75039C3.98252 7.30817 4.34267 6.94802 4.78489 6.94802V6.44802C4.06653 6.44802 3.48252 7.03203 3.48252 7.75039H3.98252ZM3.98252 9.09125V7.75039H3.48252V9.09125H3.98252ZM3.98252 11.2182V9.09125H3.48252V11.2182H3.98252ZM3.13216 11.4682H3.73252V10.9682H3.13216V11.4682ZM2.32979 12.2706C2.32979 11.8284 2.68994 11.4682 3.13216 11.4682V10.9682C2.4138 10.9682 1.82979 11.5522 1.82979 12.2706H2.32979ZM2.32979 13.8123V12.2706H1.82979V13.8123H2.32979ZM2.32979 17.5721V13.8123H1.82979V17.5721H2.32979ZM1.35156 17.8221H2.07979V17.3221H1.35156V17.8221ZM1.25 17.9237C1.25 17.8676 1.29547 17.8221 1.35156 17.8221V17.3221C1.01932 17.3221 0.75 17.5914 0.75 17.9237H1.25ZM1.35156 18.0252C1.29547 18.0252 1.25 17.9798 1.25 17.9237H0.75C0.75 18.2559 1.01932 18.5252 1.35156 18.5252V18.0252ZM2.43135 18.0252H1.35156V18.5252H2.43135V18.0252ZM17.5686 18.0252H2.43135V18.5252H17.5686V18.0252ZM18.6484 18.0252H17.5686V18.5252H18.6484V18.0252ZM18.75 17.9237C18.75 17.9798 18.7045 18.0252 18.6484 18.0252V18.5252C18.9807 18.5252 19.25 18.2559 19.25 17.9237H18.75ZM18.6484 17.822C18.7045 17.822 18.75 17.8675 18.75 17.9237H19.25C19.25 17.5915 18.9807 17.322 18.6484 17.322V17.822ZM12.9107 3.86308C12.7258 4.23763 12.8 4.6879 13.0954 4.98327L13.4489 4.62969C13.3051 4.48588 13.269 4.26684 13.359 4.08438L12.9107 3.86308ZM13.5602 2.54721L12.9107 3.86308L13.359 4.08438L14.0085 2.76852L13.5602 2.54721ZM14.658 3.86308L14.0085 2.54721L13.5602 2.76852L14.2097 4.08438L14.658 3.86308ZM14.4733 4.98325C14.7687 4.68791 14.8429 4.23765 14.6581 3.86308L14.2097 4.08438C14.2997 4.26682 14.2636 4.48587 14.1198 4.6297L14.4733 4.98325ZM14.2573 5.14551C14.3335 5.10321 14.4068 5.04974 14.4733 4.98325L14.1198 4.6297C14.0887 4.66074 14.0534 4.68679 14.0146 4.70833L14.2573 5.14551ZM13.3115 5.14551C13.605 5.3084 13.9638 5.3084 14.2573 5.14551L14.0146 4.70834C13.8721 4.78746 13.6967 4.78746 13.5542 4.70834L13.3115 5.14551ZM13.0953 4.98319C13.1618 5.04976 13.2353 5.1033 13.3117 5.14563L13.5539 4.70821C13.5152 4.68677 13.48 4.66079 13.449 4.62976L13.0953 4.98319ZM9.66462 4.13916C9.52079 3.99534 9.48466 3.77629 9.57471 3.59384L9.12634 3.37255C8.94147 3.74712 9.01572 4.19737 9.31107 4.49272L9.66462 4.13916ZM9.76984 4.21786C9.73089 4.19623 9.69564 4.1702 9.66469 4.13923L9.311 4.49265C9.37757 4.55927 9.45095 4.6127 9.52711 4.65499L9.76984 4.21786ZM10.2303 4.21785C10.0878 4.29695 9.91235 4.29696 9.7698 4.21784L9.52714 4.65501C9.8206 4.8179 10.1795 4.81791 10.4729 4.655L10.2303 4.21785ZM10.3354 4.1392C10.3044 4.17024 10.2691 4.19629 10.2303 4.21783L10.4729 4.65501C10.5491 4.61271 10.6225 4.55924 10.689 4.49275L10.3354 4.1392ZM10.4253 3.59388C10.5154 3.77632 10.4792 3.99537 10.3354 4.1392L10.689 4.49275C10.9843 4.19741 11.0586 3.74715 10.8737 3.37258L10.4253 3.59388ZM9.77582 2.27802L10.4253 3.59388L10.8737 3.37258L10.2242 2.05671L9.77582 2.27802ZM9.5747 3.59385L10.2242 2.27802L9.77582 2.05672L9.12634 3.37254L9.5747 3.59385ZM5.34202 3.86308C5.15715 4.23763 5.23134 4.6879 5.52676 4.98327L5.88028 4.62969C5.73645 4.48588 5.70032 4.26684 5.79038 4.08438L5.34202 3.86308ZM5.99153 2.54721L5.34202 3.86308L5.79038 4.08438L6.43989 2.76852L5.99153 2.54721ZM7.0894 3.86308L6.43989 2.54721L5.99153 2.76852L6.64104 4.08438L7.0894 3.86308ZM6.90469 4.98324C7.20001 4.68787 7.27429 4.23763 7.0894 3.86307L6.64105 4.08439C6.73108 4.26678 6.69496 4.48584 6.55111 4.62971L6.90469 4.98324ZM6.68863 5.14551C6.76485 5.10321 6.83819 5.04974 6.90468 4.98325L6.55113 4.6297C6.52009 4.66074 6.4848 4.68679 6.44599 4.70833L6.68863 5.14551ZM5.74285 5.14551C6.03631 5.3084 6.39521 5.30841 6.68865 5.1455L6.44596 4.70835C6.30347 4.78745 6.12806 4.78746 5.98551 4.70834L5.74285 5.14551ZM5.52668 4.98319C5.5932 5.04976 5.66663 5.1033 5.74308 5.14563L5.98529 4.70821C5.94656 4.68677 5.91136 4.66079 5.88036 4.62976L5.52668 4.98319ZM4.78489 7.65108H15.2151V7.15108H4.78489V7.65108ZM4.68564 7.75032C4.68564 7.69582 4.73039 7.65108 4.78489 7.65108V7.15108C4.45428 7.15108 4.18564 7.41965 4.18564 7.75032H4.68564ZM4.43568 7.50032H4.43564V8.00032H4.43568V7.50032ZM4.68568 8.85412V7.75032H4.18568V8.85412H4.68568ZM4.95423 8.67514C4.77688 8.67514 4.63614 8.655 4.51052 8.61559L4.36084 9.09266C4.54495 9.15042 4.73784 9.17514 4.95423 9.17514V8.67514ZM5.88187 8.35569C5.72732 8.45874 5.61284 8.53404 5.47775 8.58794C5.34776 8.63981 5.18889 8.67514 4.95423 8.67514V9.17514C5.2438 9.17514 5.46666 9.13071 5.66305 9.05234C5.85435 8.97601 6.01093 8.87059 6.15925 8.7717L5.88187 8.35569ZM5.88198 8.35562L5.88188 8.35568L6.15923 8.77171L6.15933 8.77164L5.88198 8.35562ZM7.47694 7.83416C6.66488 7.83416 6.23176 8.12244 5.88199 8.35561L6.15933 8.77165C6.4838 8.55534 6.8149 8.33416 7.47694 8.33416V7.83416ZM9.07193 8.35561C8.72216 8.12244 8.28903 7.83416 7.47694 7.83416V8.33416C8.13902 8.33416 8.47012 8.55534 8.79459 8.77165L9.07193 8.35561ZM9.07203 8.35568L9.07194 8.35562L8.79459 8.77164L8.79468 8.77171L9.07203 8.35568ZM9.99975 8.67514C9.76506 8.67514 9.60617 8.63981 9.47617 8.58794C9.34108 8.53404 9.2266 8.45874 9.07205 8.35569L8.79467 8.7717C8.94299 8.87059 9.09957 8.97601 9.29088 9.05234C9.48729 9.13071 9.71016 9.17514 9.99975 9.17514V8.67514ZM10.9275 8.3557C10.7729 8.45875 10.6584 8.53405 10.5233 8.58795C10.3933 8.63982 10.2344 8.67514 9.99975 8.67514V9.17514C10.2893 9.17514 10.5122 9.13071 10.7086 9.05235C10.8999 8.97602 11.0565 8.87061 11.2048 8.77173L10.9275 8.3557ZM10.9228 8.35889L10.9228 8.35891L11.2095 8.76852L11.2095 8.7685L10.9228 8.35889ZM12.5226 7.83416C11.7105 7.83416 11.2773 8.12246 10.9275 8.35569L11.2049 8.7717C11.5294 8.55536 11.8605 8.33416 12.5226 8.33416V7.83416ZM14.1178 8.35568C13.768 8.12245 13.3348 7.83416 12.5226 7.83416V8.33416C13.1848 8.33416 13.516 8.55536 13.8405 8.77171L14.1178 8.35568ZM15.0457 8.67514C14.811 8.67514 14.652 8.63981 14.522 8.58794C14.3869 8.53403 14.2724 8.45873 14.1178 8.35568L13.8405 8.77171C13.9888 8.8706 14.1454 8.97601 14.3367 9.05235C14.5332 9.13071 14.756 9.17514 15.0457 9.17514V8.67514ZM15.4895 8.61558C15.3639 8.65502 15.2231 8.67514 15.0457 8.67514V9.17514C15.2621 9.17514 15.4551 9.15047 15.6393 9.0926L15.4895 8.61558ZM15.3144 7.75032V8.85409H15.8144V7.75032H15.3144ZM15.2151 7.65108C15.2697 7.65108 15.3144 7.69581 15.3144 7.75032H15.8144C15.8144 7.41966 15.5458 7.15108 15.2151 7.15108V7.65108ZM2.78291 17.822H17.2171V17.322H2.78291V17.822ZM2.53291 14.1932V17.572H3.03291V14.1932H2.53291ZM3.63643 14.3172C3.41128 14.1671 3.18281 14.0126 2.82814 13.9473L2.73768 14.4391C2.98082 14.4838 3.13316 14.5826 3.35906 14.7333L3.63643 14.3172ZM4.9542 14.7548C4.29202 14.7548 3.96092 14.5336 3.63643 14.3172L3.35906 14.7333C3.70887 14.9665 4.142 15.2548 4.9542 15.2548V14.7548ZM6.27181 14.3173C5.94733 14.5336 5.61624 14.7548 4.9542 14.7548V15.2548C5.76626 15.2548 6.19938 14.9665 6.54915 14.7333L6.27181 14.3173ZM6.27191 14.3172L6.2718 14.3173L6.54915 14.7333L6.54926 14.7333L6.27191 14.3172ZM7.47691 13.9138C7.18734 13.9138 6.96449 13.9582 6.76809 14.0366C6.57679 14.1129 6.42021 14.2184 6.2719 14.3172L6.54927 14.7333C6.70383 14.6302 6.8183 14.5549 6.95339 14.501C7.08339 14.4491 7.24226 14.4138 7.47691 14.4138V13.9138ZM8.68199 14.3172C8.53367 14.2183 8.37708 14.1129 8.18577 14.0366C7.98936 13.9582 7.76649 13.9138 7.47691 13.9138V14.4138C7.71158 14.4138 7.87047 14.4491 8.00048 14.501C8.13558 14.5549 8.25006 14.6302 8.40461 14.7333L8.68199 14.3172ZM9.99972 14.7548C9.33757 14.7548 9.00647 14.5336 8.68199 14.3172L8.40462 14.7333C8.75443 14.9665 9.18755 15.2548 9.99972 15.2548V14.7548ZM11.3174 14.3173C10.9929 14.5336 10.6618 14.7548 9.99972 14.7548V15.2548C10.8118 15.2548 11.245 14.9665 11.5947 14.7333L11.3174 14.3173ZM11.3175 14.3172L11.3174 14.3173L11.5947 14.7333L11.5948 14.7333L11.3175 14.3172ZM11.3128 14.3204L11.3128 14.3204L11.5995 14.7301L11.5996 14.73L11.3128 14.3204ZM12.5226 13.9138C12.233 13.9138 12.0101 13.9582 11.8137 14.0366C11.6224 14.1129 11.4658 14.2183 11.3175 14.3172L11.5949 14.7332C11.7494 14.6302 11.8639 14.5549 11.999 14.501C12.129 14.4491 12.2879 14.4138 12.5226 14.4138V13.9138ZM13.7278 14.3172C13.5794 14.2183 13.4228 14.1129 13.2315 14.0366C13.0351 13.9582 12.8122 13.9138 12.5226 13.9138V14.4138C12.7573 14.4138 12.9162 14.4491 13.0462 14.501C13.1814 14.5549 13.2959 14.6302 13.4504 14.7333L13.7278 14.3172ZM13.7279 14.3173L13.7278 14.3172L13.4504 14.7333L13.4506 14.7334L13.7279 14.3173ZM15.0456 14.7548C14.3835 14.7548 14.0524 14.5336 13.7279 14.3173L13.4506 14.7334C13.8004 14.9665 14.2335 15.2548 15.0456 15.2548V14.7548ZM16.3634 14.3173C16.0389 14.5336 15.7077 14.7548 15.0456 14.7548V15.2548C15.8577 15.2548 16.2909 14.9665 16.6407 14.7333L16.3634 14.3173ZM16.3647 14.3164L16.3646 14.3165L16.6394 14.7342L16.6396 14.7341L16.3647 14.3164ZM17.1719 13.9473C16.8172 14.0125 16.5886 14.1671 16.3635 14.3172L16.6408 14.7333C16.8668 14.5826 17.0191 14.4838 17.2623 14.439L17.1719 13.9473ZM17.4671 17.572V14.1932H16.9671V17.572H17.4671ZM17.1855 13.234C16.6081 13.3075 16.2572 13.543 15.9734 13.7322L16.2508 14.1482C16.525 13.9654 16.7937 13.7879 17.2487 13.7299L17.1855 13.234ZM16.9671 12.2705V13.4819H17.4671V12.2705H16.9671ZM16.8678 12.1713C16.9223 12.1713 16.9671 12.216 16.9671 12.2705H17.4671C17.4671 11.9399 17.1985 11.6713 16.8678 11.6713V12.1713ZM8.63344 12.1713H16.8678V11.6713H8.63344V12.1713ZM8.03188 11.5697C8.03188 11.9019 8.3012 12.1713 8.63344 12.1713V11.6713C8.57734 11.6713 8.53188 11.6258 8.53188 11.5697H8.03188ZM8.63344 10.9681C8.3012 10.9681 8.03188 11.2375 8.03188 11.5697H8.53188C8.53188 11.5136 8.57734 11.4681 8.63344 11.4681V10.9681ZM15.5644 10.9681H8.63344V11.4681H15.5644V10.9681ZM15.3144 9.57869V11.2181H15.8144V9.57869H15.3144ZM15.0456 9.8783C15.2465 9.8783 15.4345 9.86042 15.6144 9.82363L15.5143 9.33376C15.3706 9.36313 15.2165 9.3783 15.0456 9.3783V9.8783ZM13.4504 9.35678C13.8003 9.59001 14.2334 9.8783 15.0456 9.8783V9.3783C14.3834 9.3783 14.0523 9.1571 13.7278 8.94075L13.4504 9.35678ZM12.5226 9.03732C12.7573 9.03732 12.9162 9.07265 13.0462 9.12452C13.1814 9.17843 13.2959 9.25373 13.4504 9.35678L13.7278 8.94075C13.5794 8.84186 13.4228 8.73645 13.2315 8.66012C13.0351 8.58175 12.8122 8.53732 12.5226 8.53732V9.03732ZM11.5949 9.35676C11.7494 9.25371 11.8639 9.17842 11.999 9.12451C12.129 9.07265 12.2879 9.03732 12.5226 9.03732V8.53732C12.233 8.53732 12.0101 8.58175 11.8137 8.66011C11.6224 8.73644 11.4659 8.84185 11.3175 8.94073L11.5949 9.35676ZM11.5904 9.35968L11.5904 9.35966L11.322 8.93783L11.322 8.93785L11.5904 9.35968ZM11.6003 9.35304L11.6003 9.35301L11.312 8.94452L11.312 8.94456L11.6003 9.35304ZM9.99972 9.8783C10.8118 9.8783 11.245 9.58999 11.5948 9.35682L11.3175 8.94078C10.993 9.1571 10.6618 9.3783 9.99972 9.3783V9.8783ZM8.40473 9.35685C8.7545 9.59002 9.18762 9.8783 9.99972 9.8783V9.3783C9.33764 9.3783 9.00654 9.15712 8.68207 8.94082L8.40473 9.35685ZM8.40463 9.35678L8.40472 9.35684L8.68208 8.94082L8.68198 8.94075L8.40463 9.35678ZM7.47691 9.03732C7.7116 9.03732 7.87049 9.07265 8.00049 9.12452C8.13558 9.17842 8.25006 9.25372 8.40461 9.35677L8.68199 8.94076C8.53367 8.84187 8.37709 8.73645 8.18578 8.66012C7.98937 8.58175 7.7665 8.53732 7.47691 8.53732V9.03732ZM6.54927 9.35677C6.70382 9.25372 6.8183 9.17842 6.95339 9.12452C7.08339 9.07265 7.24226 9.03732 7.47691 9.03732V8.53732C7.18734 8.53732 6.96449 8.58175 6.76809 8.66012C6.57679 8.73645 6.42021 8.84187 6.2719 8.94076L6.54927 9.35677ZM6.54916 9.35684L6.54926 9.35678L6.27191 8.94075L6.27181 8.94082L6.54916 9.35684ZM4.9542 9.8783C5.76626 9.8783 6.19938 9.59002 6.54915 9.35685L6.27181 8.94082C5.94734 9.15712 5.61624 9.3783 4.9542 9.3783V9.8783ZM4.38556 9.82366C4.56554 9.86046 4.75337 9.8783 4.9542 9.8783V9.3783C4.78335 9.3783 4.62933 9.36316 4.48573 9.33379L4.38556 9.82366ZM4.68564 11.2181V9.57873H4.18564V11.2181H4.68564ZM5.83022 10.9681H4.43564V11.4681H5.83022V10.9681ZM6.43179 11.5697C6.43179 11.2374 6.16246 10.9681 5.83022 10.9681V11.4681C5.88632 11.4681 5.93179 11.5136 5.93179 11.5697H6.43179ZM5.83022 12.1712C6.16246 12.1712 6.43179 11.9019 6.43179 11.5697H5.93179C5.93179 11.6258 5.88632 11.6712 5.83022 11.6712V12.1712ZM3.13216 12.1712H5.83022V11.6712H3.13216V12.1712ZM3.03291 12.2705C3.03291 12.216 3.07766 12.1712 3.13216 12.1712V11.6712C2.80155 11.6712 2.53291 11.9398 2.53291 12.2705H3.03291ZM3.03291 13.4819V12.2705H2.53291V13.4819H3.03291ZM4.02638 13.7321C3.74268 13.543 3.39187 13.3075 2.8145 13.234L2.75133 13.7299C3.2062 13.7879 3.47483 13.9653 3.74903 14.1481L4.02638 13.7321ZM4.02745 13.7328L4.02738 13.7328L3.74802 14.1475L3.74809 14.1475L4.02745 13.7328ZM4.95416 14.0516C4.71947 14.0516 4.56059 14.0163 4.43058 13.9644C4.29549 13.9105 4.18101 13.8352 4.02646 13.7322L3.74908 14.1482C3.8974 14.2471 4.05398 14.3525 4.24529 14.4288C4.4417 14.5072 4.66457 14.5516 4.95416 14.5516V14.0516ZM5.8818 13.7322C5.72724 13.8352 5.61277 13.9105 5.47768 13.9644C5.34768 14.0163 5.18881 14.0516 4.95416 14.0516V14.5516C5.24373 14.5516 5.46658 14.5072 5.66298 14.4288C5.85428 14.3525 6.01086 14.2471 6.15917 14.1482L5.8818 13.7322ZM5.88051 13.733L5.88041 13.7331L6.16057 14.1472L6.16066 14.1472L5.88051 13.733ZM7.47687 13.2106C6.66481 13.2106 6.23169 13.4989 5.88192 13.7321L6.15926 14.1481C6.48373 13.9318 6.81483 13.7106 7.47687 13.7106V13.2106ZM9.07201 13.7322C8.7222 13.4989 8.28907 13.2106 7.47687 13.2106V13.7106C8.13905 13.7106 8.47015 13.9318 8.79464 14.1482L9.07201 13.7322ZM9.99972 14.0516C9.76503 14.0516 9.60614 14.0163 9.47614 13.9644C9.34104 13.9105 9.22657 13.8352 9.07201 13.7322L8.79464 14.1482C8.94295 14.2471 9.09953 14.3525 9.29084 14.4288C9.48725 14.5072 9.71012 14.5516 9.99972 14.5516V14.0516ZM10.9274 13.7322C10.7729 13.8352 10.6584 13.9105 10.5233 13.9644C10.3933 14.0163 10.2344 14.0516 9.99972 14.0516V14.5516C10.2893 14.5516 10.5122 14.5072 10.7086 14.4288C10.8999 14.3525 11.0565 14.2471 11.2048 14.1482L10.9274 13.7322ZM10.9228 13.7354L10.9228 13.7354L11.2095 14.145L11.2095 14.145L10.9228 13.7354ZM10.922 13.7359L10.922 13.7359L11.2103 14.1444L11.2104 14.1444L10.922 13.7359ZM12.5226 13.2106C11.7105 13.2106 11.2773 13.4989 10.9275 13.7321L11.2049 14.1482C11.5294 13.9318 11.8605 13.7106 12.5226 13.7106V13.2106ZM14.1177 13.7321C13.7679 13.4989 13.3347 13.2106 12.5226 13.2106V13.7106C13.1847 13.7106 13.5159 13.9318 13.8404 14.1481L14.1177 13.7321ZM14.1191 13.733L14.119 13.733L13.8391 14.1473L13.8392 14.1473L14.1191 13.733ZM14.1144 13.7299L14.1143 13.7299L13.8439 14.1505L13.844 14.1505L14.1144 13.7299ZM15.0456 14.0516C14.8109 14.0516 14.652 14.0163 14.522 13.9644C14.3869 13.9105 14.2724 13.8352 14.1179 13.7322L13.8405 14.1482C13.9889 14.2471 14.1455 14.3525 14.3368 14.4288C14.5332 14.5072 14.756 14.5516 15.0456 14.5516V14.0516ZM15.9735 13.7322C15.8189 13.8352 15.7044 13.9105 15.5693 13.9644C15.4392 14.0163 15.2803 14.0516 15.0456 14.0516V14.5516C15.3352 14.5516 15.5581 14.5072 15.7545 14.4288C15.9459 14.3525 16.1025 14.2471 16.2508 14.1482L15.9735 13.7322Z" fill="white"/>
<path d="M4.42879 16.6986C4.42422 16.6761 4.41754 16.654 4.40875 16.6329C4.39996 16.6118 4.38906 16.5914 4.37641 16.5721C4.3634 16.5531 4.34899 16.5351 4.33246 16.5186C4.31629 16.5024 4.29836 16.488 4.27902 16.475C4.26004 16.4624 4.23965 16.4515 4.21856 16.4427C4.19746 16.4339 4.17531 16.4272 4.15281 16.4226C4.03856 16.3998 3.91727 16.4371 3.83535 16.5186C3.81918 16.5351 3.80442 16.5531 3.79176 16.5721C3.7791 16.5914 3.7682 16.6118 3.75942 16.6329C3.75063 16.654 3.74395 16.6761 3.73938 16.6986C3.73481 16.7215 3.7327 16.7443 3.7327 16.7675C3.7327 16.7904 3.73481 16.8132 3.73938 16.8361C3.74395 16.8586 3.75063 16.8807 3.75942 16.9018C3.7682 16.9229 3.7791 16.9433 3.79176 16.9626C3.80442 16.9816 3.81918 16.9996 3.83535 17.0161C3.90074 17.0815 3.99145 17.1191 4.08426 17.1191C4.10711 17.1191 4.12996 17.1166 4.15281 17.1121C4.17531 17.1075 4.19746 17.1008 4.21856 17.092C4.23965 17.0832 4.26004 17.0723 4.27902 17.0597C4.29836 17.0467 4.31629 17.0323 4.33246 17.0161C4.34899 16.9996 4.3634 16.9816 4.37641 16.9626C4.38906 16.9433 4.39996 16.9229 4.40875 16.9018C4.41754 16.8807 4.42422 16.8586 4.42879 16.8361C4.43336 16.8132 4.43582 16.7904 4.43582 16.7675C4.43582 16.7443 4.43336 16.7215 4.42879 16.6986Z" fill="white"/>
<path d="M8.20737 15.6476C8.2028 15.6251 8.19612 15.6029 8.18733 15.5818C8.17854 15.5607 8.16764 15.5404 8.15499 15.521C8.14198 15.502 8.12721 15.4838 8.11104 15.4676C8.09487 15.4514 8.07694 15.4366 8.0576 15.424C8.03862 15.4113 8.01823 15.4004 7.99714 15.3916C7.97569 15.3829 7.95354 15.3762 7.93139 15.3716C7.88604 15.3625 7.83928 15.3625 7.79393 15.3716C7.77143 15.3762 7.74928 15.3829 7.72819 15.3916C7.70675 15.4004 7.68635 15.4113 7.66737 15.424C7.64803 15.4366 7.6301 15.4514 7.61393 15.4676C7.59776 15.4838 7.583 15.502 7.57034 15.521C7.55768 15.5404 7.54678 15.5607 7.538 15.5818C7.52921 15.6029 7.52253 15.6251 7.51796 15.6476C7.51339 15.6704 7.51093 15.6933 7.51093 15.7161C7.51093 15.7393 7.51339 15.7622 7.51796 15.785C7.52253 15.8075 7.52921 15.8297 7.538 15.8508C7.54678 15.8719 7.55768 15.8923 7.57034 15.9116C7.583 15.9306 7.59776 15.9489 7.61393 15.965C7.6301 15.9812 7.64803 15.9956 7.66737 16.0086C7.68635 16.0213 7.70675 16.0322 7.72819 16.041C7.74928 16.0498 7.77143 16.0564 7.79393 16.061C7.81643 16.0656 7.83964 16.068 7.86249 16.068C7.88534 16.068 7.90854 16.0656 7.93139 16.061C7.95354 16.0564 7.97569 16.0498 7.99714 16.041C8.01823 16.0322 8.03862 16.0213 8.0576 16.0086C8.07694 15.9956 8.09487 15.9812 8.11104 15.965C8.12721 15.9489 8.14198 15.9306 8.15499 15.9116C8.16764 15.8923 8.17854 15.8719 8.18733 15.8508C8.19612 15.8297 8.2028 15.8075 8.20737 15.785C8.21194 15.7622 8.21405 15.7393 8.21405 15.7161C8.21405 15.6933 8.21194 15.6704 8.20737 15.6476Z" fill="white"/>
<path d="M12.2718 16.6986C12.2672 16.6761 12.2606 16.654 12.2518 16.6329C12.243 16.6118 12.2321 16.5914 12.2194 16.572C12.2068 16.5531 12.192 16.5351 12.1758 16.5186C12.1597 16.5024 12.1417 16.488 12.1224 16.475C12.1034 16.4624 12.083 16.4515 12.0616 16.4427C12.0405 16.4339 12.0183 16.4272 11.9958 16.4226C11.9505 16.4135 11.9037 16.4135 11.8584 16.4226C11.8362 16.4272 11.8141 16.4339 11.7926 16.4427C11.7715 16.4515 11.7511 16.4624 11.7322 16.475C11.7128 16.488 11.6949 16.5024 11.6787 16.5186C11.6626 16.5351 11.6478 16.5531 11.6348 16.572C11.6221 16.5914 11.6112 16.6118 11.6024 16.6329C11.5936 16.654 11.587 16.6761 11.5824 16.6986C11.5778 16.7215 11.5757 16.7443 11.5757 16.7675C11.5757 16.7904 11.5778 16.8132 11.5824 16.8361C11.587 16.8586 11.5936 16.8807 11.6024 16.9018C11.6112 16.9229 11.6221 16.9433 11.6348 16.9626C11.6478 16.9816 11.6626 16.9999 11.6787 17.0161C11.6949 17.0322 11.7128 17.047 11.7322 17.0597C11.7511 17.0723 11.7715 17.0832 11.7926 17.092C11.8141 17.1008 11.8362 17.1075 11.8584 17.112C11.8812 17.1166 11.9044 17.1191 11.9273 17.1191C12.0197 17.1191 12.1104 17.0815 12.1758 17.0161C12.192 16.9999 12.2068 16.9816 12.2194 16.9626C12.2321 16.9433 12.243 16.9229 12.2518 16.9018C12.2606 16.8807 12.2672 16.8586 12.2718 16.8361C12.2764 16.8132 12.2788 16.7904 12.2788 16.7675C12.2788 16.7443 12.2764 16.7215 12.2718 16.6986Z" fill="white"/>
<path d="M16.2606 15.8577C16.2561 15.8352 16.2494 15.8131 16.2406 15.792C16.2318 15.7709 16.2209 15.7501 16.2083 15.7312C16.1956 15.7122 16.1808 15.6939 16.1647 15.6777C16.0989 15.6123 16.0086 15.5747 15.9161 15.5747C15.8233 15.5747 15.7329 15.6123 15.6672 15.6777C15.651 15.6939 15.6366 15.7122 15.6236 15.7312C15.611 15.7501 15.6001 15.7709 15.5913 15.792C15.5825 15.8131 15.5758 15.8352 15.5712 15.8577C15.5667 15.8802 15.5645 15.9034 15.5645 15.9263C15.5645 15.9495 15.5667 15.9723 15.5712 15.9952C15.5758 16.0177 15.5825 16.0398 15.5913 16.0609C15.6001 16.082 15.611 16.1024 15.6236 16.1214C15.6366 16.1407 15.651 16.1587 15.6672 16.1752C15.6837 16.1913 15.7017 16.2058 15.7206 16.2188C15.74 16.2314 15.7604 16.2423 15.7815 16.2511C15.8026 16.2599 15.8247 16.2666 15.8472 16.2712C15.8701 16.2757 15.8929 16.2778 15.9161 16.2778C16.0086 16.2778 16.0993 16.2406 16.1647 16.1752C16.1808 16.1587 16.1956 16.1407 16.2083 16.1214C16.2209 16.1024 16.2318 16.082 16.2406 16.0609C16.2494 16.0395 16.2561 16.0177 16.2606 15.9952C16.2652 15.9723 16.2677 15.9495 16.2677 15.9263C16.2677 15.9034 16.2652 15.8802 16.2606 15.8577Z" fill="white"/>
<path d="M12.7626 10.111C12.758 10.0888 12.7513 10.0667 12.7425 10.0452C12.7337 10.0241 12.7229 10.0037 12.7102 9.98475C12.6972 9.96541 12.6824 9.94748 12.6662 9.93131C12.6501 9.91479 12.6321 9.90037 12.6128 9.88736C12.5938 9.87471 12.5734 9.86381 12.5523 9.85502C12.5309 9.84623 12.5087 9.83955 12.4866 9.83498C12.4412 9.82584 12.3945 9.82584 12.3491 9.83498C12.3266 9.83955 12.3045 9.84623 12.2834 9.85502C12.262 9.86381 12.2416 9.87471 12.2226 9.88736C12.2032 9.90037 12.1853 9.91479 12.1691 9.93131C12.153 9.94748 12.1382 9.96541 12.1255 9.98475C12.1129 10.0037 12.102 10.0241 12.0932 10.0452C12.0844 10.0667 12.0777 10.0888 12.0732 10.111C12.0686 10.1338 12.0661 10.157 12.0661 10.1799C12.0661 10.2027 12.0686 10.2259 12.0732 10.2484C12.0777 10.2709 12.0844 10.2931 12.0932 10.3142C12.102 10.3353 12.1129 10.356 12.1255 10.375C12.1382 10.3943 12.153 10.4122 12.1691 10.4284C12.1853 10.4446 12.2032 10.4594 12.2226 10.472C12.2416 10.4847 12.262 10.4956 12.2834 10.5044C12.3045 10.5131 12.3266 10.5198 12.3491 10.5244C12.3716 10.529 12.3948 10.5314 12.4177 10.5314C12.4405 10.5314 12.4637 10.529 12.4866 10.5244C12.5087 10.5198 12.5309 10.5131 12.5523 10.5044C12.5734 10.4956 12.5938 10.4847 12.6128 10.472C12.6321 10.4594 12.6501 10.4446 12.6662 10.4284C12.6824 10.4122 12.6972 10.3943 12.7102 10.375C12.7229 10.356 12.7337 10.3353 12.7425 10.3142C12.7513 10.2931 12.758 10.2709 12.7626 10.2484C12.7671 10.2259 12.7693 10.2027 12.7693 10.1799C12.7693 10.157 12.7671 10.1338 12.7626 10.111Z" fill="white"/>
<path d="M8.17223 9.6322C8.16766 9.6097 8.16098 9.58755 8.15219 9.56646C8.1434 9.54536 8.1325 9.52497 8.11985 9.50563C8.10719 9.48665 8.09242 9.46837 8.07625 9.4522C8.06008 9.43603 8.0418 9.42126 8.02281 9.4086C8.00348 9.39595 7.98309 9.38505 7.96199 9.37626C7.9409 9.36747 7.91875 9.36079 7.89625 9.35622C7.8509 9.34708 7.80414 9.34708 7.75879 9.35622C7.73629 9.36079 7.71414 9.36747 7.69305 9.37626C7.67196 9.38505 7.65156 9.39595 7.63223 9.4086C7.61324 9.42126 7.59531 9.43603 7.57879 9.4522C7.56262 9.46837 7.54821 9.48665 7.5352 9.50563C7.52254 9.52497 7.51164 9.54536 7.50285 9.56646C7.49406 9.58755 7.48739 9.6097 7.48281 9.6322C7.47824 9.65505 7.47614 9.6779 7.47614 9.7011C7.47614 9.72396 7.47824 9.74681 7.48281 9.76966C7.48739 9.79216 7.49406 9.81431 7.50285 9.8354C7.51164 9.85649 7.52254 9.87688 7.5352 9.89622C7.54821 9.91521 7.56262 9.93313 7.57879 9.94966C7.59531 9.96583 7.61324 9.98024 7.63223 9.99325C7.65156 10.0059 7.67196 10.0168 7.69305 10.0256C7.71414 10.0344 7.73629 10.0411 7.75879 10.0456C7.78164 10.0502 7.80449 10.0527 7.8277 10.0527C7.85055 10.0527 7.87375 10.0502 7.89625 10.0456C7.91875 10.0411 7.9409 10.0344 7.96199 10.0256C7.98309 10.0168 8.00348 10.0059 8.02281 9.99325C8.0418 9.98024 8.06008 9.96583 8.07625 9.94966C8.09242 9.93313 8.10684 9.91521 8.11985 9.89622C8.1325 9.87688 8.1434 9.85649 8.15219 9.8354C8.16098 9.81431 8.16766 9.79216 8.17223 9.76966C8.1768 9.74681 8.17891 9.72396 8.17891 9.7011C8.17891 9.67787 8.1768 9.65501 8.17223 9.6322Z" fill="white"/>
</svg>
