<svg width="24" height="21" viewBox="0 0 24 21" fill="none" xmlns="http://www.w3.org/2000/svg">
<path d="M21.9972 8.00988L3.1254 0.179189C2.33036 -0.15074 1.43217 -0.00560236 0.781398 0.557772C0.13063 1.12124 -0.141555 1.98942 0.0711492 2.82347L1.7509 9.41073H9.9752C10.3536 9.41073 10.6605 9.71754 10.6605 10.096C10.6605 10.4745 10.3537 10.7813 9.9752 10.7813H1.7509L0.0711492 17.3686C-0.141555 18.2027 0.130584 19.0708 0.781398 19.6342C1.43349 20.1988 2.33177 20.3421 3.12544 20.0128L21.9972 12.1822C22.8564 11.8257 23.3902 11.0263 23.3902 10.096C23.3902 9.16577 22.8564 8.36635 21.9972 8.00988Z" fill="white"/>
</svg>
