<svg width="30" height="24" viewBox="0 0 30 24" fill="none" xmlns="http://www.w3.org/2000/svg">
<path fill-rule="evenodd" clip-rule="evenodd" d="M15.0016 19.5649C11.7603 19.5649 9.13206 16.9366 9.13206 13.6953C9.13206 10.454 11.7603 7.82576 15.0016 7.82576C18.2429 7.82576 20.8712 10.454 20.8712 13.6953C20.8712 16.9366 18.2429 19.5649 15.0016 19.5649ZM29.7838 5.93185C29.729 4.91837 28.9099 4.10576 27.8964 4.06663C26.326 4.00663 24.4268 3.97011 22.8551 3.93098L22.2173 1.65098C21.9942 0.851413 21.286 0.280109 20.4577 0.224022C16.1103 -0.0746739 14.5399 -0.0746739 10.1925 0.224022C9.36424 0.280109 8.65598 0.851413 8.43293 1.64967L7.80033 3.91272C6.01076 3.95315 3.89511 3.9988 2.10685 4.06663C1.09467 4.10576 0.272935 4.91185 0.218152 5.92141C-0.0727174 11.2484 -0.0727174 16.0523 0.218152 21.3779C0.272935 22.3888 1.08685 23.2027 2.09902 23.2405C10.9151 23.5771 19.0921 23.5562 27.9068 23.1779C28.9177 23.1349 29.729 22.321 29.7838 21.3114C30.0721 16.0105 30.0721 11.2327 29.7838 5.93185Z" fill="#AE9463"/>
</svg>
