<svg width="46" height="46" viewBox="0 0 46 46" fill="none" xmlns="http://www.w3.org/2000/svg">
<path fill-rule="evenodd" clip-rule="evenodd" d="M20.0435 20.0435V4.70652C20.0435 3.21175 21.2552 2 22.75 2C24.2448 2 25.4565 3.21175 25.4565 4.70652V20.0435H40.7935C42.2882 20.0435 43.5 21.2552 43.5 22.75C43.5 24.2448 42.2882 25.4565 40.7935 25.4565H25.4565V40.7935C25.4565 42.2882 24.2448 43.5 22.75 43.5C21.2552 43.5 20.0435 42.2882 20.0435 40.7935V25.4565H4.70652C3.21175 25.4565 2 24.2448 2 22.75C2 21.2552 3.21175 20.0435 4.70652 20.0435H20.0435Z" fill="#FFDC9B"/>
<path d="M20.0435 20.0435V22.0435H22.0435V20.0435H20.0435ZM25.4565 20.0435H23.4565V22.0435H25.4565V20.0435ZM25.4565 25.4565V23.4565H23.4565V25.4565H25.4565ZM20.0435 25.4565H22.0435V23.4565H20.0435V25.4565ZM18.0435 4.70652V20.0435H22.0435V4.70652H18.0435ZM22.75 0C20.1507 0 18.0435 2.10718 18.0435 4.70652H22.0435C22.0435 4.31632 22.3598 4 22.75 4V0ZM27.4565 4.70652C27.4565 2.10718 25.3493 0 22.75 0V4C23.1402 4 23.4565 4.31632 23.4565 4.70652H27.4565ZM27.4565 20.0435V4.70652H23.4565V20.0435H27.4565ZM40.7935 18.0435H25.4565V22.0435H40.7935V18.0435ZM45.5 22.75C45.5 20.1507 43.3928 18.0435 40.7935 18.0435V22.0435C41.1837 22.0435 41.5 22.3598 41.5 22.75H45.5ZM40.7935 27.4565C43.3928 27.4565 45.5 25.3493 45.5 22.75H41.5C41.5 23.1402 41.1837 23.4565 40.7935 23.4565V27.4565ZM25.4565 27.4565H40.7935V23.4565H25.4565V27.4565ZM27.4565 40.7935V25.4565H23.4565V40.7935H27.4565ZM22.75 45.5C25.3493 45.5 27.4565 43.3928 27.4565 40.7935H23.4565C23.4565 41.1837 23.1402 41.5 22.75 41.5V45.5ZM18.0435 40.7935C18.0435 43.3928 20.1507 45.5 22.75 45.5V41.5C22.3598 41.5 22.0435 41.1837 22.0435 40.7935H18.0435ZM18.0435 25.4565V40.7935H22.0435V25.4565H18.0435ZM4.70652 27.4565H20.0435V23.4565H4.70652V27.4565ZM0 22.75C0 25.3493 2.10718 27.4565 4.70652 27.4565V23.4565C4.31632 23.4565 4 23.1402 4 22.75H0ZM4.70652 18.0435C2.10718 18.0435 0 20.1507 0 22.75H4C4 22.3598 4.31632 22.0435 4.70652 22.0435V18.0435ZM20.0435 18.0435H4.70652V22.0435H20.0435V18.0435Z" fill="#FFDC9B"/>
</svg>
