<svg width="23" height="20" viewBox="0 0 23 20" fill="none" xmlns="http://www.w3.org/2000/svg">
<path fill-rule="evenodd" clip-rule="evenodd" d="M17.4979 7.75582C18.9145 6.95052 19.6113 5.29238 19.1951 3.71695C18.779 2.14152 17.3543 1.04373 15.7249 1.04297C14.0954 1.04221 12.6697 2.13866 12.2521 3.71371C11.8345 5.28875 12.5297 6.94753 13.9455 7.75415C12.7748 8.08794 11.7236 8.75605 10.8774 9.7162C10.4714 9.4951 10.0422 9.31939 9.59767 9.19222C11.0145 8.38677 11.7112 6.72818 11.2947 5.15255C10.8781 3.57691 9.45271 2.47938 7.82294 2.47938C6.19317 2.47938 4.76776 3.57691 4.3512 5.15255C3.93464 6.72818 4.63139 8.38677 6.04821 9.19222C4.86068 9.53609 3.79691 10.2138 2.98346 11.1448C1.70438 12.5898 1 14.6143 1 16.8456C1.00001 16.976 1.07071 17.0962 1.18471 17.1595C1.32 17.2347 4.53577 19.0002 7.82294 19.0002C10.6132 19.0002 13.0135 17.9268 13.9995 17.415C14.5691 17.511 15.1456 17.5608 15.7232 17.5638C19.3087 17.5638 22.2508 15.7911 22.3743 15.7156C22.481 15.6504 22.5461 15.5343 22.5461 15.4092C22.5461 13.1779 21.8418 11.1534 20.5627 9.70843C19.7492 8.77743 18.6855 8.09968 17.4979 7.75582ZM12.8504 4.63611C12.8504 3.0495 14.1366 1.7633 15.7232 1.7633C17.3098 1.7633 18.596 3.0495 18.596 4.63611C18.596 6.22273 17.3098 7.50893 15.7232 7.50893C14.1373 7.50715 12.8522 6.22199 12.8504 4.63611ZM7.82294 3.19971C6.23633 3.19971 4.95012 4.48591 4.95012 6.07252C4.95191 7.6584 6.23707 8.94356 7.82294 8.94534C9.40956 8.94534 10.6958 7.65914 10.6958 6.07252C10.6958 4.48591 9.40956 3.19971 7.82294 3.19971ZM7.82294 18.282C5.15737 18.282 2.44539 16.9988 1.72058 16.6297C1.76386 14.6602 2.39938 12.8882 3.52121 11.6211C4.63869 10.3587 6.16658 9.66355 7.82294 9.66355C9.4793 9.66355 11.0072 10.3587 12.1247 11.6211C13.2481 12.8901 13.8839 14.6653 13.9255 16.6382C13.2537 17.0077 10.7256 18.282 7.82294 18.282ZM14.6453 16.7808C15.003 16.823 15.3629 16.8446 15.7232 16.8456C18.6322 16.8456 21.1551 15.5717 21.8258 15.2021C21.7842 13.229 21.1484 11.4538 20.0249 10.1846C18.9074 8.92231 17.3796 8.22714 15.7232 8.22714C14.0938 8.22714 12.608 8.88964 11.4975 10.1008C11.9252 10.4022 12.3162 10.7527 12.6624 11.145C13.9291 12.5758 14.6318 14.5752 14.6453 16.7808Z" fill="white"/>
<path d="M19.1951 3.71695L18.8568 3.80633L19.1951 3.71695ZM17.4979 7.75582L17.3249 7.45155L16.6041 7.86136L17.4006 8.09201L17.4979 7.75582ZM15.7249 1.04297L15.725 0.692969H15.725L15.7249 1.04297ZM13.9455 7.75415L14.0415 8.09074L14.8425 7.86237L14.1188 7.45005L13.9455 7.75415ZM10.8774 9.7162L10.7101 10.0236L10.9553 10.1571L11.14 9.94761L10.8774 9.7162ZM9.59767 9.19222L9.4247 8.88795L8.70055 9.29963L9.50141 9.52873L9.59767 9.19222ZM6.04821 9.19222L6.14556 9.52841L6.94208 9.29777L6.22119 8.88795L6.04821 9.19222ZM2.98346 11.1448L3.24553 11.3768L3.24702 11.3751L2.98346 11.1448ZM1 16.8456H0.65V16.8456L1 16.8456ZM1.18471 17.1595L1.35473 16.8536L1.35468 16.8535L1.18471 17.1595ZM13.9995 17.415L14.0577 17.0699L13.9422 17.0504L13.8383 17.1043L13.9995 17.415ZM15.7232 17.5638L15.7214 17.9138H15.7232V17.5638ZM22.3743 15.7156L22.1918 15.4169L22.1917 15.417L22.3743 15.7156ZM22.5461 15.4092L22.8961 15.4092V15.4092H22.5461ZM20.5627 9.70843L20.2991 9.93873L20.3006 9.94042L20.5627 9.70843ZM12.8504 4.63611H12.5004L12.5004 4.63651L12.8504 4.63611ZM15.7232 7.50893L15.7228 7.85893H15.7232V7.50893ZM4.95012 6.07252H4.60012L4.60013 6.07292L4.95012 6.07252ZM7.82294 8.94534L7.82255 9.29534H7.82294V8.94534ZM1.72058 16.6297L1.37067 16.622L1.36584 16.8418L1.56175 16.9416L1.72058 16.6297ZM3.52121 11.6211L3.78327 11.8531L3.78328 11.8531L3.52121 11.6211ZM12.1247 11.6211L11.8626 11.8531L11.8626 11.8531L12.1247 11.6211ZM13.9255 16.6382L14.0941 16.9449L14.2799 16.8427L14.2754 16.6308L13.9255 16.6382ZM15.7232 16.8456L15.7222 17.1956H15.7232V16.8456ZM14.6453 16.7808L14.2953 16.783L14.2972 17.0922L14.6043 17.1284L14.6453 16.7808ZM21.8258 15.2021L21.9947 15.5086L22.1802 15.4064L22.1757 15.1947L21.8258 15.2021ZM20.0249 10.1846L19.7629 10.4166L19.7629 10.4166L20.0249 10.1846ZM11.4975 10.1008L11.2395 9.86432L10.9705 10.1577L11.2959 10.387L11.4975 10.1008ZM12.6624 11.145L12.4 11.3766L12.4004 11.377L12.6624 11.145ZM18.8568 3.80633C19.2323 5.22821 18.6034 6.72474 17.3249 7.45155L17.6709 8.06008C19.2255 7.1763 19.9902 5.35655 19.5335 3.62757L18.8568 3.80633ZM15.7247 1.39297C17.1954 1.39366 18.4812 2.38445 18.8568 3.80633L19.5335 3.62757C19.0769 1.89859 17.5133 0.693806 15.725 0.692969L15.7247 1.39297ZM12.5904 3.8034C12.9673 2.38187 14.2541 1.39228 15.7247 1.39297L15.725 0.692969C13.9368 0.692134 12.3721 1.89546 11.9138 3.62401L12.5904 3.8034ZM14.1188 7.45005C12.841 6.72204 12.2135 5.22493 12.5904 3.8034L11.9138 3.62401C11.4555 5.35256 12.2185 7.17302 13.7723 8.05826L14.1188 7.45005ZM11.14 9.94761C11.9435 9.03585 12.9377 8.40547 14.0415 8.09074L13.8496 7.41757C12.612 7.77042 11.5037 8.47625 10.6148 9.48479L11.14 9.94761ZM9.50141 9.52873C9.92123 9.64882 10.3266 9.81478 10.7101 10.0236L11.0448 9.40881C10.6162 9.17543 10.1632 8.98995 9.69393 8.85572L9.50141 9.52873ZM10.9563 5.24201C11.3323 6.66407 10.7034 8.16101 9.4247 8.88795L9.77065 9.49649C11.3256 8.61254 12.0902 6.7923 11.6331 5.06309L10.9563 5.24201ZM7.82294 2.82938C9.29387 2.82938 10.5803 3.81994 10.9563 5.24201L11.6331 5.06309C11.1759 3.33388 9.61156 2.12938 7.82294 2.12938V2.82938ZM4.68958 5.24201C5.06554 3.81994 6.35202 2.82938 7.82294 2.82938V2.12938C6.03433 2.12938 4.46999 3.33388 4.01283 5.06309L4.68958 5.24201ZM6.22119 8.88795C4.94245 8.16101 4.31361 6.66407 4.68958 5.24201L4.01283 5.06309C3.55566 6.7923 4.32032 8.61254 5.87524 9.49649L6.22119 8.88795ZM3.24702 11.3751C4.01636 10.4946 5.02243 9.85363 6.14556 9.52841L5.95087 8.85603C4.69893 9.21855 3.57746 9.93305 2.71989 10.9146L3.24702 11.3751ZM1.35 16.8456C1.35 14.6856 2.03186 12.7479 3.24553 11.3768L2.72139 10.9129C1.3769 12.4317 0.65 14.543 0.65 16.8456H1.35ZM1.35468 16.8535C1.35179 16.8519 1.35 16.8489 1.35 16.8456L0.65 16.8456C0.650011 17.1031 0.789631 17.3404 1.01475 17.4655L1.35468 16.8535ZM7.82294 18.6502C4.63327 18.6502 1.48659 16.9268 1.35473 16.8536L1.01469 17.4654C1.15342 17.5425 4.43826 19.3502 7.82294 19.3502V18.6502ZM13.8383 17.1043C12.8727 17.6055 10.5313 18.6502 7.82294 18.6502V19.3502C10.695 19.3502 13.1542 18.2481 14.1607 17.7256L13.8383 17.1043ZM15.725 17.2138C15.1663 17.2109 14.6087 17.1627 14.0577 17.0699L13.9413 17.7601C14.5296 17.8593 15.1248 17.9107 15.7214 17.9138L15.725 17.2138ZM22.1917 15.417C22.0819 15.4841 19.2089 17.2138 15.7232 17.2138V17.9138C19.4086 17.9138 22.4196 16.0981 22.5568 16.0142L22.1917 15.417ZM22.1961 15.4092C22.1961 15.4123 22.1945 15.4153 22.1918 15.4169L22.5567 16.0143C22.7675 15.8855 22.8961 15.6562 22.8961 15.4092L22.1961 15.4092ZM20.3006 9.94042C21.5143 11.3115 22.1961 13.2492 22.1961 15.4092H22.8961C22.8961 13.1066 22.1692 10.9953 20.8247 9.47644L20.3006 9.94042ZM17.4006 8.09201C18.5237 8.41722 19.5298 9.05821 20.2991 9.93872L20.8262 9.47814C19.9687 8.49665 18.8472 7.78214 17.5953 7.41963L17.4006 8.09201ZM15.7232 1.4133C13.9433 1.4133 12.5004 2.8562 12.5004 4.63611H13.2004C13.2004 3.2428 14.3299 2.1133 15.7232 2.1133V1.4133ZM18.946 4.63611C18.946 2.8562 17.5031 1.4133 15.7232 1.4133V2.1133C17.1165 2.1133 18.246 3.2428 18.246 4.63611H18.946ZM15.7232 7.85893C17.5031 7.85893 18.946 6.41603 18.946 4.63611H18.246C18.246 6.02943 17.1165 7.15893 15.7232 7.15893V7.85893ZM12.5004 4.63651C12.5024 6.41538 13.9439 7.85693 15.7228 7.85893L15.7236 7.15893C14.3307 7.15737 13.2019 6.0286 13.2004 4.63572L12.5004 4.63651ZM5.30012 6.07252C5.30012 4.67921 6.42963 3.54971 7.82294 3.54971V2.84971C6.04303 2.84971 4.60012 4.29261 4.60012 6.07252H5.30012ZM7.82334 8.59534C6.43045 8.59378 5.30169 7.46501 5.30012 6.07213L4.60013 6.07292C4.60212 7.85178 6.04368 9.29334 7.82255 9.29534L7.82334 8.59534ZM10.3458 6.07252C10.3458 7.46584 9.21626 8.59534 7.82294 8.59534V9.29534C9.60286 9.29534 11.0458 7.85244 11.0458 6.07252H10.3458ZM7.82294 3.54971C9.21626 3.54971 10.3458 4.67921 10.3458 6.07252H11.0458C11.0458 4.29261 9.60286 2.84971 7.82294 2.84971V3.54971ZM1.56175 16.9416C2.29245 17.3137 5.06834 18.632 7.82294 18.632V17.932C5.2464 17.932 2.59832 16.6839 1.87941 16.3178L1.56175 16.9416ZM3.25915 11.3891C2.07342 12.7284 1.41544 14.5844 1.37067 16.622L2.0705 16.6374C2.11227 14.7361 2.72533 13.0481 3.78327 11.8531L3.25915 11.3891ZM7.82294 9.31355C6.06436 9.31355 4.44172 10.0532 3.25915 11.3891L3.78328 11.8531C4.83567 10.6642 6.26881 10.0135 7.82294 10.0135V9.31355ZM12.3867 11.3891C11.2042 10.0532 9.58153 9.31355 7.82294 9.31355V10.0135C9.37707 10.0135 10.8102 10.6642 11.8626 11.8531L12.3867 11.3891ZM14.2754 16.6308C14.2324 14.5897 13.5742 12.7304 12.3867 11.3891L11.8626 11.8531C12.9221 13.0498 13.5354 14.7409 13.5756 16.6456L14.2754 16.6308ZM7.82294 18.632C10.8152 18.632 13.4067 17.323 14.0941 16.9449L13.7568 16.3315C13.1006 16.6924 10.6359 17.932 7.82294 17.932V18.632ZM15.7242 16.4956C15.3773 16.4946 15.0307 16.4738 14.6862 16.4332L14.6043 17.1284C14.9754 17.1721 15.3486 17.1946 15.7222 17.1956L15.7242 16.4956ZM21.6568 14.8955C21.0021 15.2564 18.5426 16.4956 15.7232 16.4956V17.1956C18.7219 17.1956 21.3082 15.887 21.9947 15.5086L21.6568 14.8955ZM19.7629 10.4166C20.8224 11.6135 21.4357 13.3046 21.4759 15.2094L22.1757 15.1947C22.1326 13.1534 21.4745 11.294 20.287 9.95265L19.7629 10.4166ZM15.7232 8.57714C17.2773 8.57714 18.7105 9.22783 19.7629 10.4166L20.287 9.95265C19.1044 8.61679 17.4818 7.87714 15.7232 7.87714V8.57714ZM11.7555 10.3374C12.8009 9.19714 14.1936 8.57714 15.7232 8.57714V7.87714C13.9939 7.87714 12.4151 8.58213 11.2395 9.86432L11.7555 10.3374ZM12.9249 10.9134C12.5606 10.5006 12.1492 10.1319 11.6991 9.81473L11.2959 10.387C11.7013 10.6726 12.0719 11.0048 12.4 11.3766L12.9249 10.9134ZM14.9953 16.7787C14.9814 14.5024 14.256 12.417 12.9245 10.913L12.4004 11.377C13.6022 12.7346 14.2822 14.6481 14.2953 16.783L14.9953 16.7787Z" fill="white"/>
</svg>
