<svg width="50" height="50" viewBox="0 0 50 50" fill="none" xmlns="http://www.w3.org/2000/svg">
<rect width="50" height="50" rx="25" fill="#AE9463"/>
<path fill-rule="evenodd" clip-rule="evenodd" d="M27.2197 29.2803C26.9268 28.9874 26.9268 28.5126 27.2197 28.2197L29.9393 25.5H17.75C17.3358 25.5 17 25.1642 17 24.75C17 24.3358 17.3358 24 17.75 24H29.9393L27.2197 21.2803C26.9268 20.9874 26.9268 20.5126 27.2197 20.2197C27.5126 19.9268 27.9874 19.9268 28.2803 20.2197L32.2803 24.2197C32.5732 24.5126 32.5732 24.9874 32.2803 25.2803L28.2803 29.2803C27.9874 29.5732 27.5126 29.5732 27.2197 29.2803Z" fill="#050E17"/>
<path d="M27.2197 28.2197L28.2803 29.2803L27.2197 28.2197ZM27.2197 29.2803L28.2803 28.2197L28.2803 28.2197L27.2197 29.2803ZM29.9393 25.5L31 26.5607L33.5607 24H29.9393V25.5ZM29.9393 24V25.5H33.5607L31 22.9393L29.9393 24ZM27.2197 21.2803L28.2803 20.2197L28.2803 20.2197L27.2197 21.2803ZM27.2197 20.2197L28.2803 21.2803L28.2803 21.2803L27.2197 20.2197ZM28.2803 20.2197L27.2197 21.2803L27.2197 21.2803L28.2803 20.2197ZM32.2803 24.2197L33.341 23.159L33.341 23.159L32.2803 24.2197ZM32.2803 25.2803L33.341 26.341L33.341 26.341L32.2803 25.2803ZM28.2803 29.2803L27.2197 28.2197L27.2197 28.2197L28.2803 29.2803ZM26.159 27.159C25.2803 28.0377 25.2803 29.4623 26.159 30.341L28.2803 28.2197C28.5732 28.5126 28.5732 28.9874 28.2803 29.2803L26.159 27.159ZM28.8787 24.4393L26.159 27.159L28.2803 29.2803L31 26.5607L28.8787 24.4393ZM17.75 27H29.9393V24H17.75V27ZM15.5 24.75C15.5 25.9926 16.5074 27 17.75 27V24C18.1642 24 18.5 24.3358 18.5 24.75H15.5ZM17.75 22.5C16.5074 22.5 15.5 23.5074 15.5 24.75H18.5C18.5 25.1642 18.1642 25.5 17.75 25.5V22.5ZM29.9393 22.5H17.75V25.5H29.9393V22.5ZM26.159 22.341L28.8787 25.0607L31 22.9393L28.2803 20.2197L26.159 22.341ZM26.159 19.159C25.2803 20.0377 25.2803 21.4623 26.159 22.341L28.2803 20.2197C28.5732 20.5126 28.5732 20.9874 28.2803 21.2803L26.159 19.159ZM29.341 19.159C28.4623 18.2803 27.0377 18.2803 26.159 19.159L28.2803 21.2803C27.9874 21.5732 27.5126 21.5732 27.2197 21.2803L29.341 19.159ZM33.341 23.159L29.341 19.159L27.2197 21.2803L31.2197 25.2803L33.341 23.159ZM33.341 26.341C34.2197 25.4623 34.2197 24.0377 33.341 23.159L31.2197 25.2803C30.9268 24.9874 30.9268 24.5126 31.2197 24.2197L33.341 26.341ZM29.341 30.341L33.341 26.341L31.2197 24.2197L27.2197 28.2197L29.341 30.341ZM26.159 30.341C27.0377 31.2197 28.4623 31.2197 29.341 30.341L27.2197 28.2197C27.5126 27.9268 27.9874 27.9268 28.2803 28.2197L26.159 30.341Z" fill="#050E17"/>
</svg>
