<svg width="20" height="20" viewBox="0 0 20 20" fill="none" xmlns="http://www.w3.org/2000/svg">
<path fill-rule="evenodd" clip-rule="evenodd" d="M8.05405 15.1081C4.15821 15.1081 1 11.9499 1 8.05405C1 4.15821 4.15821 1 8.05405 1C11.9499 1 15.1081 4.15821 15.1081 8.05405C15.1081 9.73914 14.5173 11.2862 13.5314 12.4994L18.7863 17.7543C19.0712 18.0393 19.0712 18.5013 18.7863 18.7863C18.5013 19.0712 18.0393 19.0712 17.7543 18.7863L12.4994 13.5314C11.2862 14.5173 9.73914 15.1081 8.05405 15.1081ZM8.05405 13.6486C11.1439 13.6486 13.6486 11.1439 13.6486 8.05405C13.6486 4.96424 11.1439 2.45946 8.05405 2.45946C4.96424 2.45946 2.45946 4.96424 2.45946 8.05405C2.45946 11.1439 4.96424 13.6486 8.05405 13.6486Z" fill="white"/>
<path d="M13.5314 12.4994L13.3546 12.6762L13.1952 12.5168L13.3374 12.3418L13.5314 12.4994ZM18.7863 17.7543L18.963 17.5775H18.963L18.7863 17.7543ZM18.7863 18.7863L18.6095 18.6095H18.6095L18.7863 18.7863ZM17.7543 18.7863L17.9311 18.6095H17.9311L17.7543 18.7863ZM12.4994 13.5314L12.3418 13.3374L12.5168 13.1952L12.6762 13.3546L12.4994 13.5314ZM1.25 8.05405C1.25 11.8118 4.29628 14.8581 8.05405 14.8581V15.3581C4.02014 15.3581 0.75 12.088 0.75 8.05405H1.25ZM8.05405 1.25C4.29628 1.25 1.25 4.29628 1.25 8.05405H0.75C0.75 4.02014 4.02014 0.75 8.05405 0.75V1.25ZM14.8581 8.05405C14.8581 4.29628 11.8118 1.25 8.05405 1.25V0.75C12.088 0.75 15.3581 4.02014 15.3581 8.05405H14.8581ZM13.3374 12.3418C14.2883 11.1715 14.8581 9.67965 14.8581 8.05405H15.3581C15.3581 9.79862 14.7462 11.4009 13.7254 12.6571L13.3374 12.3418ZM13.7082 12.3226L18.963 17.5775L18.6095 17.931L13.3546 12.6762L13.7082 12.3226ZM18.963 17.5775C19.3457 17.9601 19.3457 18.5804 18.963 18.963L18.6095 18.6095C18.7968 18.4221 18.7968 18.1184 18.6095 17.931L18.963 17.5775ZM18.963 18.963C18.5804 19.3457 17.9601 19.3457 17.5775 18.963L17.9311 18.6095C18.1184 18.7968 18.4221 18.7968 18.6095 18.6095L18.963 18.963ZM17.5775 18.963L12.3227 13.7082L12.6762 13.3546L17.9311 18.6095L17.5775 18.963ZM8.05405 14.8581C9.67965 14.8581 11.1715 14.2883 12.3418 13.3374L12.6571 13.7254C11.4009 14.7462 9.79862 15.3581 8.05405 15.3581V14.8581ZM13.8986 8.05405C13.8986 11.2819 11.2819 13.8986 8.05405 13.8986V13.3986C11.0058 13.3986 13.3986 11.0058 13.3986 8.05405H13.8986ZM8.05405 2.20946C11.2819 2.20946 13.8986 4.82617 13.8986 8.05405H13.3986C13.3986 5.10232 11.0058 2.70946 8.05405 2.70946V2.20946ZM2.20946 8.05405C2.20946 4.82617 4.82617 2.20946 8.05405 2.20946V2.70946C5.10232 2.70946 2.70946 5.10232 2.70946 8.05405H2.20946ZM8.05405 13.8986C4.82617 13.8986 2.20946 11.2819 2.20946 8.05405H2.70946C2.70946 11.0058 5.10232 13.3986 8.05405 13.3986V13.8986Z" fill="white"/>
</svg>
